<svg xmlns="http://www.w3.org/2000/svg" width="51" height="80" viewBox="0 0 51 80">
  <path fill="#2C302F" fill-rule="evenodd" d="M18.0375217,10.4890059 C17.7165356,11.7138215 17.4800194,13.4792455 17.3195263,15.7937247 C17.1590333,18.1110196 17.1308766,20.8591117 17.2406876,24.0520794 C19.2595217,21.4447707 21.0953373,19.014849 22.7453189,16.7510519 C24.3924847,14.4900703 25.4568073,12.6148353 25.9354709,11.1281626 C26.4676322,9.53167871 26.6027842,8.17452666 26.3352958,7.05670641 C26.0678073,5.93888615 25.6707981,5.09137004 25.1386368,4.50571106 C24.2854893,3.54838389 23.4745769,3.20205671 22.7058995,3.46672952 C21.9344064,3.73421799 21.2304894,4.27764194 20.5913327,5.09981704 C19.9493604,5.92762348 19.4059364,6.87087231 18.9554295,7.93519487 C18.502107,8.99951743 18.1951991,9.84984921 18.0375217,10.4890059 Z M9.5792546,52.9352033 C9.47225921,54.4246917 9.711591,55.3820189 10.3000656,55.8071848 C10.882909,56.2351663 11.6262453,56.3280834 12.5328905,56.0887516 C13.4339043,55.8494198 14.3799688,55.4101756 15.3654526,54.7710189 C16.3481208,54.1346779 17.212531,53.4673645 17.9558673,52.7747102 C17.3702084,50.6488807 16.8662038,48.5343139 16.4410379,46.4338255 C16.015872,44.3333371 15.6695448,42.297609 15.404872,40.3294569 C13.7548905,42.6692772 12.3836601,44.902102 11.2939965,47.0307471 C10.2043329,49.1593923 9.62993663,51.1275443 9.5792546,52.9352033 Z M50.9104474,75.5140461 C51.0681248,75.9420277 51.0540465,76.3531153 50.871028,76.7529401 C50.6823783,77.1499493 50.3782861,77.4033595 49.9531202,77.5103549 C47.1318207,78.5211797 44.4203323,79.028 41.8130236,79.028 C41.2273646,79.028 40.655784,78.9998433 40.1010973,78.9491613 C39.5379637,78.8928479 38.9663831,78.8140092 38.3835398,78.7098295 C35.0835767,78.0706728 32.0511021,76.5276867 29.2889317,74.0808711 C26.842116,71.8452305 24.7782313,69.1703458 23.1057244,66.0618482 C21.4275862,62.9477192 20.0310148,59.6393091 18.9131945,56.1281709 C16.9450425,57.561346 15.0191255,58.6284843 13.1298121,59.3183229 C11.2433145,60.0109773 9.47225921,60.3544888 7.82509334,60.3544888 C7.55760487,60.3544888 7.31827307,60.3544888 7.10709796,60.3544888 L6.46794129,60.2756501 C4.49978926,60.064475 2.90330541,59.2929819 1.68130544,57.9611709 C0.509987486,56.5251801 -0.0475148073,54.7991756 0.00316721943,52.7747102 C0.0566649143,49.4775628 1.84179852,45.1442495 5.35012104,39.7719546 C6.62843438,37.7503049 8.02500578,35.7539962 9.53983524,33.7858442 C11.0546647,31.8205078 12.6117292,29.8523558 14.2053974,27.881388 C13.9942223,23.9478996 13.9548029,20.3804481 14.0871393,17.1902961 C14.2194757,14.0001441 14.5010425,11.5251718 14.9233927,9.77101051 C15.2978766,8.17452666 15.8413006,6.69911655 16.5592959,5.33914884 C17.280107,3.98481246 18.1839365,2.8585452 19.2736,1.94908438 C20.3632636,1.04807058 21.641577,0.44833326 23.1057244,0.155503772 C24.5670562,-0.137325715 26.2283004,-0.016251985 28.089457,0.515909295 C29.6324432,1.04807058 30.9642542,1.89840236 32.0792588,3.06972031 C33.5152495,4.55639309 34.419079,6.23453131 34.7935629,8.09568796 C35.2722265,10.2750151 35.1652311,12.4008446 34.4753924,14.4788077 C33.83342,16.4976417 32.543844,18.7586232 30.6038487,21.2589366 C28.6610377,23.7592499 26.4422912,26.5270517 23.9419778,29.5567106 C22.9846507,30.7280285 21.9991668,31.8993465 20.9911576,33.0678488 C19.9775171,34.2391667 19.0201899,35.4358257 18.1163604,36.6578257 C18.1698581,37.1928026 18.2233558,37.7108856 18.2768535,38.2148902 C18.3275355,38.7217104 18.4091899,39.2369777 18.5161853,39.7719546 C18.7808581,41.6331113 19.0877659,43.4407702 19.4340931,45.1977472 C19.7804203,46.9519084 20.1661668,48.652572 20.5913327,50.3025535 C21.5993419,49.238231 22.6777428,47.948655 23.8209041,46.4338255 C24.966881,44.9161804 26.095964,43.1085214 27.2137842,41.0052173 C28.3287888,38.9075445 29.3931114,36.5142266 30.4039362,33.8280792 C31.4147611,31.1419318 32.2904339,28.0953788 33.036586,24.6884204 C33.1435813,24.2632545 33.3829131,23.919743 33.7545813,23.6522545 C34.1290652,23.3903973 34.5260744,23.308743 34.954056,23.4129227 C35.3792219,23.5199181 35.7227334,23.7592499 35.9902218,24.1309181 C36.252079,24.5025863 36.3337334,24.9052268 36.2295536,25.3303927 C34.6865675,32.192176 32.5860791,37.9755584 29.9252727,42.6805398 C27.2644663,47.3911527 24.4713234,51.1275443 21.5486599,53.8953461 C22.7706599,57.9358299 24.2066506,61.4582307 25.8566322,64.4625487 C27.503798,67.4696822 29.3396137,69.8770785 31.3612634,71.6847375 C36.201397,75.9927097 42.0241987,76.9218802 48.8353,74.4778803 C49.8461248,74.2103918 50.5359635,74.556719 50.9104474,75.5140461 Z"/>
</svg>
