<svg xmlns="http://www.w3.org/2000/svg" width="115" height="115" viewBox="0 0 115 115">
  <path fill="#A1B2C1" fill-rule="evenodd" d="M1228.55113,2747.5274 C1223.76512,2747.5274 1218.30112,2749.48513 1213.16609,2753.03953 L1211.83018,2753.96223 L1213.45093,2754.11869 C1218.56189,2754.62016 1223.35592,2756.86674 1227.3115,2760.61772 L1227.59232,2761.03093 L1227.99751,2761.89345 L1228.59927,2761.15529 C1231.41551,2757.71321 1235.63988,2755.36233 1240.19722,2754.70842 L1241.16405,2754.564 L1240.59839,2753.76967 C1237.65779,2749.62554 1233.60191,2747.5274 1228.55113,2747.5274 Z M1223.26766,2777.53925 C1224.05396,2777.53925 1224.82422,2777.62751 1225.55436,2777.80403 L1226.08792,2777.93641 L1226.26042,2777.41489 L1226.60944,2776.89336 C1229.33743,2774.59864 1232.79956,2773.33494 1236.35798,2773.33494 C1238.42002,2773.33494 1240.37374,2773.7642 1242.171,2774.60265 L1243.84791,2775.38896 L1242.94526,2773.77222 C1239.75994,2768.06752 1234.03117,2764.66155 1227.61639,2764.66155 C1221.67099,2764.66155 1216.14682,2767.6142 1212.83713,2772.56469 L1212.61648,2772.89365 L1212.83312,2773.22262 C1213.15005,2773.70804 1213.16208,2774.38602 1212.8612,2774.87144 L1212.23537,2775.87037 L1213.41081,2775.78211 L1214.45787,2775.74199 C1216.86492,2775.74199 1219.14359,2776.36381 1221.2297,2777.5914 L1221.41022,2777.69571 L1221.62285,2777.66362 C1222.17246,2777.58338 1222.73009,2777.53925 1223.26766,2777.53925 Z M1255.0166,2777.59542 L1255.6665,2778.12497 L1255.95535,2777.33866 C1258.5028,2770.3462 1255.88314,2762.44306 1249.8575,2758.95284 C1247.69918,2757.7092 1245.32824,2757.07134 1242.80886,2757.07134 C1238.77305,2757.07134 1234.70915,2758.75226 1231.66424,2761.68484 L1230.8659,2762.45108 L1231.94506,2762.69981 C1237.73401,2764.00363 1242.52002,2767.6503 1245.42051,2772.96586 L1245.60906,2773.30686 C1248.662,2773.59972 1252.59351,2775.62164 1255.0166,2777.59542 Z M1207.74623,2756.77848 C1202.3384,2757.72525 1197.42,2760.87447 1194.24671,2765.41576 C1191.15767,2769.84072 1189.99426,2775.26459 1190.97313,2780.67242 L1191.23389,2782.10863 L1192.05229,2780.9051 C1196.06804,2775.0279 1201.47988,2771.65804 1206.89975,2771.65804 C1207.82646,2771.65804 1208.76521,2771.75833 1209.68791,2771.94688 L1210.0931,2772.03113 L1210.31374,2771.67809 C1213.30249,2766.87604 1218.0203,2763.64658 1223.58459,2762.57946 L1224.41101,2762.423 L1223.98978,2761.69688 C1223.14731,2759.81136 1217.37441,2756.47359 1211.14016,2756.47359 C1210.33781,2756.47359 1209.51942,2756.52574 1208.71707,2756.62603 L1208.62881,2756.63807 L1208.54456,2756.67417 L1208.05513,2756.7865 L1207.93077,2756.77447 L1207.8385,2756.76243 L1207.74623,2756.77848 Z M1216.39153,2793.09679 L1216.59212,2792.68759 C1218.51776,2788.71998 1221.81541,2786.35305 1225.40993,2786.35305 C1226.36874,2786.35305 1227.36365,2786.51352 1228.36258,2786.83446 C1228.76776,2786.96685 1229.189,2787.13534 1229.69046,2787.36802 L1230.28019,2787.64884 L1230.50485,2787.03104 L1230.6252,2786.85452 L1230.84986,2786.54562 L1230.80172,2786.29288 C1229.59017,2780.17095 1222.30886,2778.62242 1217.98018,2782.02037 C1214.81091,2784.50364 1213.68762,2788.33886 1214.89515,2792.54317 L1215.00748,2792.94033 L1215.41267,2792.97644 L1215.66541,2792.99249 L1215.92617,2793.00853 L1216.39153,2793.09679 Z M1234.16356,2785.93182 C1238.57647,2785.93182 1242.84898,2788.49532 1244.79468,2792.3145 L1245.34027,2793.38163 L1245.86581,2792.30247 C1248.04018,2787.82135 1247.3983,2782.71039 1244.22902,2779.28035 C1242.24722,2777.12203 1239.42295,2775.94258 1236.28176,2775.94258 C1233.62197,2775.94258 1231.02637,2776.80109 1228.96835,2778.36968 L1228.31042,2778.87115 L1228.99643,2779.33651 C1231.14673,2780.8008 1232.66718,2782.98319 1233.26894,2785.47849 L1233.38127,2785.94787 L1233.86669,2785.93583 L1234.16356,2785.93182 Z M1206.90777,2774.31782 C1201.68849,2774.31782 1196.64974,2777.90432 1193.0833,2784.15462 C1190.68829,2788.35892 1189.40052,2795.10266 1191.74338,2799.31901 C1193.04319,2801.64983 1195.32988,2802.94161 1198.36677,2803.05394 L1199.18115,2803.08603 L1198.96452,2802.29973 C1197.45209,2796.83574 1198.23438,2789.63867 1199.86716,2785.83955 C1201.4157,2782.24101 1204.14769,2779.27232 1207.56169,2777.47907 L1207.81443,2777.34669 L1207.87059,2777.06587 L1207.88664,2776.86929 C1208.01501,2776.48015 1208.16746,2776.11909 1208.32793,2775.74199 L1208.5566,2775.19238 L1208.85347,2774.45021 L1208.05914,2774.37399 C1207.67803,2774.33788 1207.28889,2774.31782 1206.90777,2774.31782 Z M1187.91217,2769.84473 C1176.62713,2777.2825 1171.14308,2794.08368 1180.2377,2804.04484 L1181.17645,2805.07586 L1181.27273,2803.68779 C1181.65786,2798.09944 1185.78594,2788.56352 1189.55698,2785.33808 L1189.44064,2785.02918 L1189.42459,2785.00511 C1187.67146,2780.12281 1187.46285,2775.11215 1188.81481,2770.51068 L1189.27616,2768.9461 L1187.91217,2769.84473 Z M1234.20769,2788.56352 L1233.52569,2788.58759 L1233.33714,2788.60364 L1233.19272,2788.72399 L1233.07637,2788.78417 L1232.46258,2789.18133 L1232.97608,2789.69885 C1235.53959,2792.29846 1236.63078,2795.81675 1235.90064,2799.11842 C1235.49144,2800.96382 1234.64898,2802.6648 1233.3933,2804.16118 L1232.61904,2805.08789 L1233.82657,2805.14005 L1234.21571,2805.14807 C1238.54037,2805.14807 1243.21405,2801.84239 1243.27824,2796.91998 C1243.30231,2794.88603 1242.48792,2792.9283 1240.9755,2791.39581 C1239.22638,2789.62262 1236.69497,2788.56352 1234.20769,2788.56352 Z M1246.70026,2776.62859 L1246.45153,2776.93348 L1245.95006,2777.31459 L1246.36728,2777.79199 C1249.42824,2781.29424 1250.49536,2786.37712 1249.14742,2791.07086 L1249.05114,2791.41186 L1249.30388,2791.66059 C1253.12306,2795.40354 1254.93636,2800.26979 1254.41083,2805.36872 L1254.32257,2806.21118 L1255.14899,2806.00658 L1255.5622,2805.95443 L1255.6665,2805.95844 L1255.98343,2805.9785 L1256.17599,2805.72576 C1260.01523,2800.73515 1261.22277,2794.54503 1259.50173,2788.75207 C1257.78069,2782.97115 1253.3758,2778.45794 1247.41435,2776.36782 L1246.94898,2776.20735 L1246.70026,2776.62859 Z M1259.48568,2771.52164 C1259.5258,2774.39404 1258.92805,2777.24238 1257.76063,2779.75775 L1257.60016,2780.10276 L1257.84488,2780.39561 C1261.07433,2784.23485 1262.84351,2789.11714 1262.82746,2794.14386 L1262.82746,2794.61724 L1263.2848,2794.72556 L1263.73813,2794.95423 C1267.22835,2797.65012 1269.61132,2801.20051 1270.62629,2805.23232 L1271.01142,2806.74875 L1271.73353,2805.3647 C1275.06729,2798.98202 1275.68911,2791.89327 1273.49068,2785.40227 C1271.33637,2779.04767 1266.6667,2773.92467 1260.33216,2770.97203 L1259.46963,2770.57486 L1259.48568,2771.52164 Z M1225.41394,2788.96871 C1222.04408,2788.96871 1219.15562,2791.72076 1218.06042,2795.98525 C1217.07754,2799.80443 1217.77157,2804.58241 1221.53058,2806.65247 L1221.71512,2806.75277 L1221.92373,2806.71666 L1222.10827,2806.67253 L1222.17647,2806.65648 C1226.68567,2806.64846 1231.94506,2803.97664 1233.2569,2798.87771 C1234.26385,2794.97028 1231.83675,2790.79405 1227.72872,2789.37389 C1226.94643,2789.10511 1226.16815,2788.96871 1225.41394,2788.96871 Z M1214.52206,2778.22526 C1209.18644,2778.22526 1203.85082,2782.30119 1201.83693,2787.91362 C1200.08781,2792.77986 1199.77489,2803.06999 1204.26403,2806.08281 L1205.67216,2807.02958 L1205.16266,2805.40482 C1204.38439,2802.9376 1204.6291,2800.32997 1205.85268,2798.05932 C1207.10034,2795.74454 1209.26668,2794.00345 1211.79006,2793.28936 L1212.33165,2793.1329 L1212.20729,2792.58329 C1211.04789,2787.31988 1212.85318,2782.32125 1216.90905,2779.53309 L1218.04838,2778.75481 L1216.70044,2778.45794 C1215.99036,2778.30148 1215.25621,2778.22526 1214.52206,2778.22526 Z M1212.70073,2795.55198 C1210.9837,2795.89699 1209.51942,2796.94004 1208.57666,2798.49259 C1206.83957,2801.35296 1207.20464,2805.29249 1209.41511,2807.7196 C1212.17118,2810.79259 1216.23909,2811.32214 1219.97001,2809.88193 L1221.16952,2809.41656 L1220.03821,2808.79876 C1216.64026,2806.94533 1214.81492,2803.28662 1215.03155,2798.76137 L1215.04359,2798.52468 L1214.87509,2798.33212 L1214.81893,2798.27194 C1214.27734,2797.55785 1213.77989,2796.74748 1213.35464,2795.87693 L1213.15005,2795.46372 L1212.70073,2795.55198 Z M1230.01541,2807.04161 C1228.93224,2807.71157 1227.7207,2808.24112 1226.41688,2808.63026 L1226.19222,2808.69846 L1226.07588,2808.89504 L1225.8432,2809.22801 C1223.90553,2810.99318 1221.51854,2812.2288 1218.943,2812.80248 L1218.39741,2812.92283 L1218.48165,2813.47645 C1218.71834,2815.04905 1219.92989,2816.92254 1224.3388,2816.92254 C1227.59633,2816.91852 1231.09457,2815.89954 1232.4345,2815.20952 C1235.72011,2813.51255 1238.33978,2810.82067 1240.01268,2807.42273 L1240.75485,2805.90629 L1239.22237,2806.62038 C1237.60964,2807.37058 1235.86052,2807.76373 1234.16356,2807.76373 C1233.14859,2807.76373 1232.15367,2807.62733 1231.20289,2807.35453 L1230.70945,2807.09376 L1230.38048,2806.82097 L1230.01541,2807.04161 Z M1247.5347,2794.7055 L1247.43039,2794.87801 L1247.31405,2795.06656 C1247.08137,2795.41157 1246.76846,2795.60814 1246.38734,2795.65628 L1245.82971,2795.71646 L1245.87384,2796.49073 L1245.89389,2796.90394 C1245.8618,2800.28584 1244.20495,2802.68486 1242.81689,2804.09699 L1242.29536,2804.62654 L1242.9252,2805.01969 C1243.24614,2805.22028 1243.57511,2805.6014 1243.32237,2806.27537 C1241.68558,2810.70032 1238.65671,2814.44328 1234.79741,2816.82224 L1233.46953,2817.64465 L1235.00602,2817.91745 C1235.91268,2818.08193 1236.82735,2818.16217 1237.71796,2818.16217 C1243.24614,2818.16217 1248.16053,2814.99289 1250.54351,2809.88995 C1252.94654,2804.74288 1252.1803,2799.0422 1248.4935,2794.64131 L1247.96797,2794.00746 L1247.5347,2794.7055 Z M1186.70864,2794.533 C1183.94856,2801.58965 1182.77312,2811.20179 1187.75972,2817.02684 L1187.83594,2817.1151 L1187.94426,2817.17126 L1188.48986,2817.73692 L1188.538,2817.84524 L1188.62626,2817.92948 C1190.42753,2819.63849 1192.72626,2820.80189 1195.46227,2821.38761 L1196.44113,2821.59221 L1196.16031,2820.6334 C1194.66794,2815.49436 1196.06002,2810.04641 1197.4882,2806.37967 L1197.761,2805.68163 L1197.01481,2805.5693 C1190.96109,2804.70277 1188.31735,2799.38319 1187.86001,2794.69347 L1186.70864,2794.533 Z M1208.77724,2811.94396 C1209.45523,2818.69573 1215.37255,2823.97919 1222.24066,2823.97919 C1225.75494,2823.97919 1228.96434,2822.57909 1231.51179,2819.92332 L1231.77657,2819.65052 L1231.61209,2819.22528 L1231.57197,2819.10894 L1231.41551,2818.4831 L1230.80573,2818.6877 C1229.7025,2819.05277 1228.70759,2819.29348 1227.7568,2819.4379 C1227.11894,2819.53819 1226.45299,2819.58633 1225.775,2819.58633 C1221.64291,2819.58633 1216.8248,2817.71686 1216.01042,2813.60482 L1215.91815,2813.14347 L1215.44877,2813.12743 C1213.35063,2813.0512 1211.36081,2812.44543 1209.69192,2811.38232 L1208.65288,2810.72038 L1208.77724,2811.94396 Z M1262.41827,2798.38427 C1261.67208,2802.00286 1260.05134,2805.30453 1257.60016,2808.19699 L1257.39958,2808.43369 L1257.4758,2808.73056 C1258.77961,2813.74122 1257.91709,2819.19318 1255.11288,2823.68232 L1254.41484,2824.8016 L1255.71865,2824.58898 C1261.70819,2823.59005 1266.44606,2819.43389 1268.08285,2813.72919 C1269.71162,2808.0606 1267.91837,2802.05502 1263.39713,2798.05932 L1262.62688,2797.37732 L1262.41827,2798.38427 Z M1200.02763,2806.84905 C1196.62969,2814.59171 1197.19133,2820.66549 1201.69652,2824.89788 C1205.32313,2828.29984 1210.38194,2828.93771 1213.07382,2829.01794 C1213.12999,2829.01794 1218.17676,2828.64886 1221.65093,2827.89465 L1221.51854,2826.7152 L1221.43028,2826.7152 C1219.284,2826.7152 1217.20592,2826.2699 1215.2522,2825.39534 C1209.57157,2822.84387 1206.00914,2816.86236 1206.16961,2810.15473 L1206.18165,2809.62919 L1205.66814,2809.54895 C1203.83077,2809.25609 1202.27421,2808.30531 1201.04662,2806.72067 L1200.43282,2805.92635 L1200.02763,2806.84905 Z M1234.22373,2820.7377 C1232.62305,2822.56305 1230.61718,2824.07547 1228.42676,2825.1105 L1227.33958,2825.62802 L1228.40671,2826.18164 C1232.68322,2828.39612 1236.66689,2829.5154 1240.2574,2829.5154 C1243.9482,2829.5154 1247.16562,2828.31188 1249.82139,2825.94094 C1254.08989,2822.12577 1256.09977,2816.4652 1255.19312,2810.80062 L1255.13294,2810.42752 L1254.76386,2810.32322 L1254.15407,2810.00629 L1253.52824,2809.43662 L1253.20329,2810.21891 C1250.52746,2816.64573 1244.4617,2820.79788 1237.75407,2820.79788 C1236.7752,2820.79788 1235.76825,2820.71363 1234.77334,2820.54113 L1234.44438,2820.48496 L1234.22373,2820.7377 Z M1173.94729,2800.7873 C1170.67371,2808.59817 1170.44102,2816.49729 1173.30942,2822.44671 C1175.61216,2827.22068 1179.87664,2830.60659 1185.63751,2832.23135 L1186.78086,2832.55229 L1186.35561,2831.44505 C1184.79504,2827.33702 1184.61451,2822.87195 1185.83007,2818.51921 L1185.91432,2818.21833 L1185.71373,2817.97361 C1184.30561,2816.27665 1183.21442,2814.40717 1182.47224,2812.40932 C1182.05903,2811.29406 1181.73809,2810.10257 1181.52547,2808.86696 L1181.48535,2808.63829 L1181.30081,2808.49788 C1178.53672,2806.35159 1176.42655,2803.74797 1175.03848,2800.76323 L1174.47283,2799.53965 L1173.94729,2800.7873 Z M1271.18393,2809.13574 C1271.34841,2815.96774 1267.69772,2822.16589 1261.66406,2825.30708 L1261.33108,2825.4836 L1261.34312,2825.85669 L1261.35917,2826.04524 L1261.36719,2826.11745 C1260.94194,2829.1383 1259.71034,2831.91442 1257.60819,2834.59828 L1256.87003,2835.53301 L1258.06151,2835.5611 L1258.59909,2835.56912 C1267.5212,2835.56912 1275.21172,2830.37792 1278.58158,2822.13379 C1281.24137,2815.62674 1280.66769,2808.35345 1277.00898,2802.16734 L1276.34704,2801.04406 L1275.92982,2802.27967 C1275.26387,2804.24944 1274.38129,2806.17508 1273.30614,2807.98838 C1273.06945,2808.38956 1272.73246,2808.59416 1272.30721,2808.59416 L1271.93412,2808.54602 L1271.16387,2808.33741 L1271.18393,2809.13574 Z M1187.89612,2821.32342 C1187.06569,2826.55473 1188.52998,2831.82215 1191.90786,2835.78575 C1195.27773,2839.7293 1200.19613,2841.98791 1205.40337,2841.98791 C1206.63899,2841.98791 1207.89867,2841.86355 1209.14231,2841.61482 L1210.39398,2841.36208 L1209.39906,2840.56374 C1206.31805,2838.09251 1204.05141,2834.8109 1202.65934,2830.8152 C1202.5109,2830.39798 1202.5791,2830.04896 1202.8519,2829.75209 L1203.35738,2829.20649 L1202.71951,2828.82939 C1200.7698,2827.67802 1199.18918,2826.25385 1198.02978,2824.58497 L1197.86931,2824.35229 L1197.50425,2824.32019 L1197.47616,2824.32821 C1194.29485,2823.9471 1191.39035,2822.80776 1188.83888,2820.93428 L1188.04857,2820.35659 L1187.89612,2821.32342 Z M1205.62,2831.16021 C1208.44828,2838.10053 1214.74271,2842.40914 1222.04809,2842.41315 C1228.71561,2842.40914 1234.5527,2838.79456 1237.6618,2832.73683 L1238.04692,2831.99064 L1237.21649,2831.8743 C1234.05925,2831.42499 1230.73352,2830.31374 1227.33156,2828.57264 L1226.95445,2828.37606 L1226.64956,2828.66491 C1224.8523,2830.3699 1220.87666,2831.30464 1215.45279,2831.30464 C1212.22333,2831.30464 1208.72108,2830.94358 1206.31403,2830.35787 L1205.17871,2830.08105 L1205.62,2831.16021 Z M1250.36699,2838.01628 L1250.8845,2837.60307 C1254.90026,2834.38566 1257.27521,2831.20434 1258.35437,2827.59377 L1258.65525,2826.58281 L1257.63226,2826.84358 C1256.60525,2827.10434 1255.54615,2827.29289 1254.48304,2827.40121 L1254.3346,2827.40923 L1253.53627,2826.97597 L1253.13108,2826.34211 L1252.60554,2826.87968 C1251.95965,2827.54162 1251.27364,2828.14739 1250.56356,2828.68497 C1247.84761,2830.747 1244.70241,2831.88233 1241.21219,2832.06286 L1240.84712,2832.08291 L1240.69869,2832.41589 C1239.13411,2835.95425 1236.79125,2838.87078 1233.73831,2841.08928 L1233.17266,2841.49446 C1233.99105,2842.81433 1234.56874,2843.37196 1236.03303,2844.00983 C1240.40182,2845.92343 1246.65211,2841.01707 1250.36699,2838.01628 Z M1204.48468,2845.4019 C1206.41032,2851.52784 1211.29261,2855.04613 1217.87588,2855.04613 C1224.1021,2855.04613 1230.70142,2851.88889 1234.6891,2847.00259 L1235.15446,2846.43292 L1234.50054,2846.09593 C1233.34516,2845.5022 1232.37432,2844.63165 1231.52784,2843.42813 L1231.41952,2843.23155 L1231.15876,2842.70601 L1230.6252,2842.95474 C1227.9253,2844.24251 1224.90445,2844.92451 1221.89565,2844.92451 C1218.78253,2844.92451 1215.67744,2844.19437 1212.91736,2842.81834 L1212.33566,2842.52949 L1212.09897,2843.13527 C1211.95455,2843.48429 1211.69378,2843.71296 1211.29662,2843.82529 C1209.39906,2844.35885 1207.44133,2844.63165 1205.47959,2844.63165 L1205.06237,2844.62764 L1204.23595,2844.61159 L1204.48468,2845.4019 Z M1254.38676,2838.02431 C1252.01983,2840.17059 1249.30789,2842.03204 1247.21376,2843.41208 C1243.91209,2845.58644 1240.93137,2846.74985 1238.34781,2846.87421 L1238.04291,2846.89026 L1237.87843,2847.14701 C1236.7752,2848.83596 1235.36708,2850.40455 1233.69418,2851.80063 L1233.20876,2852.20181 L1233.64203,2852.66717 C1236.04105,2855.22666 1238.97765,2856.52647 1242.36356,2856.52647 C1250.94869,2856.52647 1260.87776,2847.61237 1262.41827,2838.52176 L1262.55065,2837.71941 L1261.74831,2837.83174 C1260.54879,2837.99622 1259.33324,2838.08047 1258.13372,2838.08047 C1257.04654,2838.08047 1255.94732,2838.01227 1254.86014,2837.87587 L1254.58734,2837.83977 L1254.38676,2838.02431 Z M1242.1028,2859.17021 C1237.86238,2859.17021 1234.26385,2857.45719 1231.39947,2854.08733 L1231.07451,2853.7022 L1230.64125,2853.96296 C1226.82207,2856.23361 1222.36101,2857.48929 1218.07647,2857.48929 C1209.52343,2857.48929 1203.35337,2852.67921 1201.57215,2844.63165 L1201.48791,2844.25856 L1201.11481,2844.17431 C1195.96775,2843.05102 1191.49064,2840.01413 1188.51794,2835.61726 L1188.31334,2835.31237 L1187.95228,2835.3565 L1187.64338,2835.38458 L1187.51902,2835.37656 C1179.22273,2833.89221 1172.47899,2828.50444 1169.48222,2820.96637 C1166.62184,2813.77332 1167.89357,2805.58134 1173.36559,2795.92106 L1173.46989,2795.73652 L1173.43379,2795.52791 C1171.47204,2783.78152 1179.34308,2770.23387 1190.98516,2765.3275 L1191.15767,2765.25128 L1191.25796,2765.09081 C1194.72411,2759.54658 1200.68957,2755.53484 1207.21668,2754.35539 L1207.38517,2754.32329 L1207.51355,2754.21096 C1213.76785,2748.53033 1221.89565,2745 1228.72363,2745 C1235.22266,2745 1240.44996,2748.09707 1243.83186,2753.95822 L1243.84791,2754.0184 L1243.90006,2754.19893 L1244.03245,2754.55597 L1244.40554,2754.58807 C1247.27795,2754.85685 1250.00192,2755.83171 1252.28861,2757.41233 C1255.60231,2759.70705 1257.97727,2763.2414 1258.97218,2767.36547 L1259.06445,2767.74257 L1259.44155,2767.81077 L1259.61807,2767.83484 L1259.71034,2767.84688 C1272.35937,2773.03005 1279.28765,2785.22575 1276.95281,2798.19973 L1276.84048,2798.82556 L1277.47033,2798.89777 C1277.85144,2798.94591 1278.16436,2799.14249 1278.39704,2799.47948 C1283.08276,2806.2874 1284.23814,2814.12635 1281.64655,2821.5561 C1279.07101,2828.93771 1273.07346,2834.70659 1265.60359,2836.98527 L1265.21445,2837.10963 L1265.18236,2837.5108 C1264.376,2848.24222 1252.72991,2859.17021 1242.10681,2859.17021 L1242.1028,2859.17021 Z" transform="translate(-1168 -2745)"/>
</svg>
