<svg xmlns="http://www.w3.org/2000/svg" width="152" height="113" viewBox="0 0 152 113">
  <path fill="#889EB0" fill-rule="evenodd" d="M324.36283,2540.09459 C330.340607,2539.08385 334.966886,2536.99307 341.458694,2539.9964 C346.004114,2542.09873 349.891113,2545.38506 353.500881,2548.86199 C348.562718,2549.57817 343.624555,2550.28857 338.692167,2551.00475 C337.866252,2551.12026 337.057664,2552.21186 337.15585,2553.02045 C337.612124,2556.90744 338.068399,2560.79444 338.530449,2564.68722 C334.140971,2561.38933 329.347198,2557.99326 326.135948,2554.05428 C322.0237,2549.00061 325.315809,2545.46592 324.36283,2540.09459 Z M208.902221,2467.51225 C210.889037,2471.45701 213.349455,2476.77636 213.349455,2476.77636 C214.371742,2478.91334 217.98151,2477.37125 217.167147,2475.16496 C216.416315,2473.13194 215.596175,2471.16245 214.695177,2469.22761 C222.948552,2475.42486 231.490708,2481.18317 240.362075,2486.46787 C241.794431,2492.33591 245.126969,2498.16929 247.523855,2502.97462 C254.350649,2516.66286 261.165892,2530.34532 267.992686,2544.02779 C269.263325,2546.58062 273.901155,2546.1359 274.363206,2543.1961 C275.801337,2533.96664 282.391331,2526.27351 289.801463,2518.86337 C300.001225,2526.45255 310.200987,2534.0475 320.394973,2541.64823 C321.030292,2546.80587 317.206825,2550.25392 321.134253,2555.02459 C326.078192,2561.03702 333.730901,2565.86545 339.691351,2570.87292 C340.915784,2571.8952 343.497491,2571.38117 343.266466,2569.39436 C342.688903,2564.5255 342.117115,2559.65664 341.545328,2554.78201 C347.193894,2553.96765 352.848235,2553.15329 358.502576,2552.33315 C360.119752,2552.09635 360.425861,2549.84963 359.426677,2548.83889 C354.263264,2543.63505 348.58582,2538.28104 341.655065,2535.55494 C339.090685,2534.54421 336.462774,2533.89734 333.696247,2533.85691 C329.532019,2533.79915 326.060865,2535.83795 321.97172,2536.23647 L320.758837,2536.73895 C311.436971,2529.79664 302.120881,2522.84856 292.799015,2515.90625 C305.973226,2503.0728 319.90982,2490.58012 311.725753,2471.78622 C307.532646,2462.15824 297.078756,2455.70109 286.867443,2460.77787 C279.780746,2464.28945 276.038138,2471.65915 273.860726,2479.27143 C271.602455,2474.72601 268.414307,2470.79858 263.620535,2468.47101 C256.580042,2465.04028 246.992497,2465.64095 242.250705,2472.51395 C240.385177,2475.22849 239.651672,2478.15674 239.663223,2481.15429 C232.212661,2476.60887 224.987349,2471.72846 217.993062,2466.51307 C220.984838,2466.23006 223.982389,2465.94706 226.974165,2465.66405 C229.192007,2465.45035 229.971717,2462.12359 227.528626,2461.55758 C221.539298,2460.16565 215.763669,2459.83066 209.647277,2460.6277 C208.105184,2460.82985 207.729768,2462.1929 208.174491,2464.19704 L208.902221,2467.51225 Z" opacity=".215" transform="translate(-208 -2459)"/>
</svg>
