<svg xmlns="http://www.w3.org/2000/svg" width="155" height="48" viewBox="0 0 155 48">
  <path fill="#2C302F" fill-rule="evenodd" d="M532.01006,34.2278998 C535.510133,33.7569597 537.025668,30.171614 535.682617,25.159882 C533.762035,28.0494769 532.207739,30.8673648 532.01006,34.2278998 Z M529.28326,11.3999062 C528.727046,15.6635607 531.992618,21.2722043 536.260149,23.4854286 C535.320207,18.6016062 532.725191,14.8670325 529.28326,11.3999062 Z M489.937481,42.2493842 C492.910411,38.7783819 495.672096,35.1252052 498.377579,31.4352061 C495.931792,31.6076903 489.123511,38.7570636 486.631211,43.9722882 C487.751389,43.4141371 489.185527,43.1253714 489.937481,42.2493842 Z M522.352883,39.5419636 C525.364574,38.6388441 527.120424,36.751208 527.893696,34.1949533 C528.601075,31.8518814 528.787125,29.3537675 529.205739,26.9215465 C525.637835,30.4565036 523.271507,34.4701529 522.352883,39.5419636 Z M521.788918,18.1287282 C522.765682,20.7489376 524.75022,22.6385118 526.407231,24.7606489 C526.664988,25.0901131 527.362677,25.0726708 527.858811,25.2122086 C527.895634,24.7780911 528.10494,24.2645145 527.944084,23.9214841 C526.533202,20.8245206 525.089374,17.7411232 523.583529,14.6887342 C523.102899,13.7177838 522.420714,12.8456727 521.804422,11.8921645 C521.000142,13.2119594 521.112547,16.310861 521.788918,18.1287282 Z M499.455121,12.2778315 C498.993871,16.6597054 503.691643,25.2025185 508.902991,26.7626284 C507.015355,21.167551 503.176128,17.0027358 499.455121,12.2778315 Z M508.848727,29.9623073 C503.838933,33.8635511 500.627626,39.0497053 497.511282,44.4722986 C502.742011,44.4529183 508.713065,34.6872116 508.848727,29.9623073 Z M520.754013,27.6812522 C516.199654,33.0108202 512.09298,38.4993063 509.474709,45.1583593 C513.744177,44.0129867 522.143576,31.0010886 520.754013,27.6812522 Z M437.360808,7.37462884 C439.246506,13.8495695 443.136121,19.0260336 447.797071,23.7761323 C447.618773,16.1170585 443.634194,11.0045492 437.360808,7.37462884 Z M457.058891,43.5788692 C459.431034,43.952908 461.146185,42.9315689 462.841957,42.1253506 C466.795528,40.2435286 469.774272,37.1252468 472.605726,33.8945595 C473.706524,32.6425955 474.582511,31.191015 475.809281,29.4874912 C468.314939,32.8964768 462.964053,38.3558925 457.058891,43.5788692 Z M469.097901,14.2100421 C467.130806,12.1789922 464.287724,10.992921 461.653948,9.65956002 C462.977619,12.8166023 464.185008,15.9678306 467.061037,17.9465538 C469.532019,19.6442635 471.043678,22.1385014 472.832475,24.4137424 C473.489465,25.2548452 474.262737,26.0087368 474.979806,26.8013889 C475.171671,26.6715413 475.359659,26.5397556 475.551523,26.4079699 C473.989475,22.0416001 472.367349,17.5880193 469.097901,14.2100421 Z M519.250105,26.3091306 C519.445846,26.2335477 519.641586,26.1540887 519.833451,26.0785057 C519.564065,24.8536741 519.593136,23.4447301 518.972968,22.4388952 C516.901219,19.0880504 514.660863,15.8360449 512.354613,12.6383041 C511.34684,11.2351741 510.028984,10.052979 508.837098,8.78357283 C508.682056,8.62077875 508.437865,8.54907184 507.852582,8.2176696 C509.651069,15.8786814 513.155018,21.9291947 519.250105,26.3091306 Z M498.695415,28.8595712 C497.449265,21.4272463 493.935626,15.3496007 487.825034,10.8204368 C489.925853,17.7411232 492.073184,24.6366153 498.695415,28.8595712 Z M480.266738,42.1175985 C482.846249,40.198954 485.309478,38.0671268 487.536268,35.7492492 C488.625438,34.6116287 489.06537,32.8480261 489.590575,31.189077 C483.722236,34.3325531 478.346155,38.0380564 473.479775,42.8773042 C476.173629,43.9063954 478.425614,43.487782 480.266738,42.1175985 Z M432.740557,15.9096898 C430.816098,14.1538394 429.22498,12.0336403 427.445873,10.1091818 C425.742349,8.2641822 423.482612,7.42114143 420.633716,6.52383597 C421.312025,8.2099175 421.550402,9.77777953 422.428327,10.7739242 C424.379918,12.9968386 426.562134,15.0453308 428.829623,16.9523471 C430.808346,18.6112963 433.025446,19.9892319 435.145645,21.4718209 C435.453791,21.6850036 435.83752,21.7780288 436.41699,22.028034 C435.624337,19.5318581 434.564238,17.5725151 432.740557,15.9096898 Z M489.478169,28.0649811 C487.757203,20.1035754 482.788108,14.8573424 476.487589,10.6246963 C478.570966,18.0415171 482.125303,24.3284693 489.478169,28.0649811 Z M422.131809,27.6754381 C420.061999,28.8867036 417.93211,29.9913777 415.906874,31.3072965 C424.40705,34.088362 431.069979,30.1793661 437.546858,25.6095037 C432.327757,25.865323 426.959429,24.8381699 422.131809,27.6754381 Z M465.355575,25.869199 C461.865193,17.2663072 456.52012,10.6518287 447.973431,6.32034337 C449.178883,12.3417863 460.919437,24.8808064 465.355575,25.869199 Z M450.382396,27.0106956 C445.504388,26.0455593 433.385919,31.7355999 431.887826,35.7550633 C440.019778,38.1659661 447.618773,34.3403052 450.382396,27.0106956 Z M403.633363,15.0201365 C405.29425,17.2934395 407.6005,18.3457869 410.209081,19.2682867 C414.07544,20.6365322 418.040639,20.307068 421.961263,20.6772307 C422.930275,20.7683179 423.939986,20.467924 425.149314,20.3225722 C419.592997,14.9891281 411.021113,10.9347803 403.633363,15.0201365 Z M450.990936,40.7667953 C457.308896,38.394653 463.779961,36.0980936 466.312959,28.8208107 C462.702419,28.4080114 447.446288,36.4546902 443.915207,40.7299728 C446.370685,41.8927876 448.795154,41.5923938 450.990936,40.7667953 Z M435.626276,22.7295989 L435.292935,22.2567209 C433.062269,20.7973882 430.711445,19.4911596 428.614502,17.8612808 C426.835395,16.4833452 425.401257,14.671292 423.717113,13.1615707 C421.674435,11.3262613 420.385649,9.10916099 419.866258,6.43856288 C419.817808,6.18274362 419.920523,5.7273078 420.094945,5.64203471 C420.329446,5.51800113 420.722865,5.59746014 421.007755,5.70211348 C422.125995,6.1187888 423.314004,6.44243893 424.315963,7.0587308 C425.907081,8.03549528 427.496262,9.07815259 428.847065,10.3475588 C430.420741,11.8282097 431.548671,13.8127471 433.217311,15.1480461 C434.870446,16.4775311 435.69023,18.2023731 436.684437,19.915587 C437.370498,21.1074722 437.287163,22.8671987 439.227125,23.2121671 C441.327944,23.5842678 443.378375,24.2005597 445.459813,24.6811898 C446.126494,24.8362318 446.822244,24.8866205 447.502491,24.9873978 C444.178779,21.5435278 441.395775,17.9136074 439.087588,13.8553836 C437.661202,11.3437035 436.554589,8.8126432 436.219311,5.95599472 C436.197993,5.77963447 436.428618,5.5703278 436.577846,5.31644655 C438.054621,6.43081078 439.572094,7.35718661 440.814368,8.56263801 C443.02953,10.7080314 445.36485,12.7332673 446.841625,15.5821636 C448.285453,18.3632292 448.521892,21.4001139 449.167254,24.3439735 C449.461834,25.6831486 450.06456,25.6889627 451.066519,25.4719039 C451.434743,25.3905069 451.853357,25.3304281 452.200263,25.4292674 C452.91927,25.634698 453.585951,26.1172662 454.304958,26.1909111 C456.221665,26.3885897 458.157751,26.4079699 460.08221,26.5416936 C461.392315,26.6327808 462.702419,26.7955748 464.369121,26.964183 C461.913643,24.8653022 459.826391,23.0784434 457.733324,21.2935226 C456.97168,20.6423463 456.093755,20.0861332 455.456145,19.3264275 C454.101465,17.7159289 452.863068,16.0065911 451.595599,14.3263236 C449.800989,11.9522433 448.087775,9.52583631 447.41528,6.55290634 C447.366829,6.33584757 447.831955,5.77963447 447.868778,5.79513867 C449.496719,6.53740215 451.275825,7.09555327 452.678955,8.15177676 C458.760477,12.7274532 463.832288,18.1577985 466.217996,25.6211319 C466.481568,26.4428543 466.778085,26.8401494 467.756788,26.882786 C469.94288,26.9796872 472.115405,27.2878331 474.452663,27.5281482 C473.648383,26.5048711 472.958446,25.5629911 472.202617,24.6753758 C470.549481,22.735413 469.123095,20.4853663 467.132744,18.9814591 C463.99702,16.6054407 462.576448,13.2449058 460.869048,9.99096225 C460.589972,9.45412939 460.429116,8.8514037 460.212057,8.27968639 L460.531832,8.02580515 C461.933023,8.87465999 463.310959,9.76615138 464.739283,10.5626795 C467.935086,12.3398482 471.146393,14.0724424 472.689061,17.6887966 C473.911954,20.5590112 475.227873,23.3924034 476.326733,26.3110687 C476.662012,27.2083741 476.867442,27.7723393 477.925604,27.8711786 C479.987662,28.0649811 482.034216,28.3983213 484.088522,28.6754589 C485.74941,28.9002697 487.414173,29.1250806 489.076998,29.3498915 C485.576925,26.7044877 482.103985,24.1986217 479.760913,20.4543579 C477.50699,16.8515699 475.756954,13.0685456 474.989496,8.85721777 C475.431366,8.95218098 475.62323,9.22156642 475.884864,9.35916618 C479.115551,11.0607519 481.795839,13.4076999 484.111779,16.2120217 C486.352135,18.9291324 488.449078,21.71795 489.445223,25.1792622 C489.774687,26.3246348 490.16423,27.4603173 490.613852,28.5611154 C490.757266,28.9138359 491.179755,29.3828379 491.489839,29.394466 C493.443368,29.470049 495.398835,29.4332265 497.51322,29.4332265 C496.08102,28.1580062 494.674014,27.2645768 493.749576,26.0145509 C491.276656,22.6733962 489.50724,18.9194423 488.111862,15.0104463 C487.464562,13.2119594 487.00525,11.3437035 486.464541,9.50839409 L486.945171,9.30296346 C493.982139,14.0065495 498.044239,20.7237433 499.908618,29.1250806 C503.030776,28.8653853 506.077351,28.611504 509.125864,28.3595608 L509.335171,28.0262206 C501.980367,24.6773138 499.148913,18.3322208 497.720588,10.6208203 C498.695415,11.3223853 499.604349,11.7468127 500.199322,12.4445016 C503.883507,16.7624207 507.713044,20.9834386 509.660759,26.5029331 C509.899136,27.1793037 511.102649,28.0049023 511.782896,27.9409475 C513.97674,27.7393929 516.1357,27.1521714 518.753971,26.6230906 C514.746136,24.615297 512.866252,21.1152243 510.842954,17.799264 C508.83516,14.510436 506.821553,11.1363349 507.606453,6.79709746 C507.949483,7.0587308 508.176232,7.17695031 508.329336,7.35718661 C510.996058,10.4522121 513.81007,13.4348322 516.253919,16.6965279 C518.149307,19.2334023 520.077642,21.8555498 520.686182,25.1230595 C520.740446,25.4021351 521.085415,25.8478807 521.286969,25.8420667 C522.86646,25.8033062 524.44595,25.6734585 526.362656,25.553301 C523.833534,22.8633226 521.560231,20.4969944 520.961381,17.2294847 C520.591219,15.2023108 520.752075,13.0704836 520.724942,10.987107 C520.723004,10.7661721 521.029212,10.4367079 521.259837,10.3572489 C521.409065,10.3049223 521.775352,10.5665556 521.885819,10.7739242 C524.135866,15.0046323 526.337462,19.2624726 528.624331,23.4718624 C528.959609,24.0920303 529.697997,24.9195669 530.248396,24.9176289 C531.909283,24.9118148 533.572108,24.5455281 535.39579,24.2974609 C533.335669,21.9020624 531.422839,19.8341899 529.703811,17.6132136 C528.765807,16.4038861 527.924704,10.8107467 528.238664,9.73901903 C533.219388,14.5588866 533.849246,15.299212 537.541183,23.7664422 C543.653713,21.4388744 549.783685,19.1074307 555.915596,16.7740489 L556.11715,17.2759973 C555.75474,17.4949941 555.419461,17.7837598 555.02798,17.9252356 C553.345775,18.5318373 551.632561,19.0609181 549.958108,19.684962 C546.128571,21.1171623 542.335856,22.6462639 538.481125,24.0048192 C537.29893,24.4234326 536.882255,25.1249975 536.85706,26.2219195 C536.822176,27.4893877 536.891945,28.7607319 536.83768,30.0282001 C536.723337,32.7995755 534.143826,34.8364395 531.864709,35.3674583 C531.089499,35.5476946 530.533286,35.18916 530.85306,34.2395279 C531.517802,32.287937 532.151536,30.3227799 532.887986,28.3944453 C533.279467,27.3692302 533.860874,26.419598 534.411273,25.322676 C533.420942,25.4505857 532.581778,25.6715205 531.754241,25.6463262 C530.265838,25.5978756 529.858853,26.3847136 529.765828,27.6890043 C529.641794,29.394466 529.513884,31.115432 529.15535,32.7782572 C528.385954,36.3209665 526.548707,39.0458293 522.845141,40.0749204 C522.412962,40.195078 521.819926,40.2086441 521.480772,39.9915854 C521.275341,39.8597997 521.263713,39.1233503 521.420693,38.7745058 C522.889716,35.5302524 524.364553,32.287937 525.942105,29.0960102 C526.36847,28.2355272 527.145618,27.5494665 527.759972,26.7839467 C527.690203,26.5920823 527.618496,26.3982798 527.550665,26.2044773 C525.562252,26.3963418 523.575777,26.5882062 521.579611,26.7800707 C521.684265,27.4796976 521.918765,28.0107164 521.800546,28.4467719 C521.312164,30.2704532 521.029212,32.2491765 520.093146,33.8286667 C518.236518,36.9605147 515.957401,39.8423575 513.930227,42.8773042 C512.726714,44.6738532 511.108463,45.83473 509.098732,46.4897824 C508.837098,46.5750554 508.50182,46.4393937 508.201426,46.4064473 C508.267319,46.146752 508.317708,45.8812426 508.402981,45.6292994 C508.464998,45.445187 508.62004,45.286269 508.654924,45.1002186 C509.294472,41.8152667 511.358469,39.2183135 513.050364,36.5031408 C515.071724,33.2588874 517.569838,30.3111517 519.955546,27.1114729 C516.719045,27.8072238 513.622082,28.4739043 510.486358,29.1463989 C509.970843,30.4836359 509.406878,31.7666083 508.978574,33.0922173 C507.399084,37.9837917 504.703292,42.0032551 500.183818,44.6544729 C498.914412,45.3986744 497.604307,45.7048823 495.993808,45.441311 C499.346591,39.4043639 502.8893,33.7395175 508.596783,29.2064776 C506.306038,29.3537675 504.493985,29.4991194 502.68387,29.5785784 C501.10438,29.6464093 499.910556,29.9177327 499.007437,31.6115664 C497.697332,34.0651057 495.94342,36.2996482 494.220516,38.5051204 C492.889093,40.2163962 491.423946,41.8656553 489.807633,43.3036697 C488.478148,44.4819887 486.751368,44.8734697 484.784273,44.4102818 C488.284346,38.7977621 492.348384,33.9701425 497.763225,30.0630846 C495.763183,30.0630846 493.94144,30.0088199 492.125511,30.099907 C491.691393,30.1231633 491.094482,30.5301485 490.894865,30.9235676 C490.268883,32.1561513 489.951047,33.5670333 489.230102,34.7298482 C487.051762,38.2241068 484.026506,40.9334654 480.44116,42.8521099 C478.008939,44.1544625 475.287952,44.7881966 472.171608,43.2901035 C477.264737,37.9818537 483.10982,34.0069649 489.191342,30.2820814 C485.981973,29.8460258 482.78617,29.4099702 479.588429,28.9739147 C478.222121,28.7898023 477.140704,29.2762465 476.25115,30.3130898 C473.778231,33.2026847 471.419655,36.202747 468.768437,38.9179197 C466.33234,41.4121575 463.326463,43.1932023 459.929106,44.115702 C458.620939,44.4703606 457.211995,44.4548564 455.849564,44.6079603 C455.770105,44.3753973 455.694522,44.1428344 455.617001,43.9122094 C461.719841,38.3849628 467.62694,32.6135251 475.58447,28.6638307 C473.254964,28.3382425 471.398336,28.1250598 469.557213,27.8072238 C468.324629,27.592103 467.824619,28.1696344 467.278096,29.1890354 C465.582324,32.3402637 463.634609,35.3015655 460.44462,37.2337761 C457.091838,39.2648261 453.502616,40.747415 449.756414,41.7842583 C447.426908,42.4257445 445.010191,42.5207077 442.399672,40.8385022 C449.066477,34.5554259 457.198429,31.3286147 465.026111,27.7878435 C464.92921,27.7587731 464.619126,27.5959791 464.299352,27.5746608 C460.793465,27.3188415 457.283702,27.0649603 453.773939,26.8556536 C452.59562,26.7839467 451.518078,26.5765781 450.872716,28.2394033 C450.262238,29.8227695 449.085857,31.272412 447.899786,32.5321281 C445.595475,34.9779153 442.58766,36.2453835 439.343407,36.9275682 C436.385981,37.5496742 433.46344,37.5012236 430.271513,36.049643 C434.975099,30.8305424 440.748475,27.9176912 447.622649,25.9622242 C445.014067,25.4874081 442.824099,25.0726708 440.628317,24.7063842 C440.388002,24.6676237 440.079856,24.8924345 439.833727,25.0436005 C436.698003,26.9506168 433.783214,29.1328327 430.393609,30.7336411 C426.347013,32.6425955 422.399257,33.61936 418.034825,32.9313612 C416.664641,32.7181785 415.329342,32.291813 413.976601,31.9642869 L413.806055,31.4875328 C414.034742,31.3751273 414.267305,31.272412 414.494054,31.1503165 C417.311942,29.6483473 420.060061,27.9893981 422.967098,26.6831694 C425.690023,25.4622138 428.581556,24.6501815 431.643635,24.6831279 C433.990583,24.7121982 436.333655,24.617235 438.676726,24.5649084 C438.705797,24.5649084 438.729053,24.3904861 438.78138,24.1869935 C437.895702,24.0435797 437.013901,23.9176081 436.143728,23.756752 C433.184364,23.2102291 430.037012,23.283874 427.587349,21.0764638 C427.290831,20.8090164 426.738494,20.7043631 426.317943,20.7295574 C423.705485,20.8904134 421.10078,21.1772411 418.488323,21.2935226 C414.484364,21.4737589 410.697463,20.3942791 407.00165,19.0240956 C404.912459,18.2508237 403.377544,16.7546686 402.249613,14.7003624 C402.945364,14.3999686 403.5384,14.1809718 404.100427,13.8960821 C407.350494,12.244885 410.912584,12.2196907 414.22273,12.9580781 C419.839126,14.2119802 424.000065,18.5163331 429.104822,20.9136697 C431.124244,21.8613638 433.327778,22.425329 435.444101,23.1637165 L435.626276,22.7295989 Z" transform="scale(-1 1) rotate(4 214.818 -7955.03)"/>
</svg>
