<svg xmlns="http://www.w3.org/2000/svg" width="154" height="48" viewBox="0 0 154 48">
  <path fill="#2C302F" fill-rule="evenodd" d="M131.01006,34.2278998 C134.510133,33.7569597 136.025668,30.171614 134.682617,25.159882 C132.762035,28.0494769 131.207739,30.8673648 131.01006,34.2278998 Z M128.28326,11.3999062 C127.727046,15.6635607 130.992618,21.2722043 135.260149,23.4854286 C134.320207,18.6016062 131.725191,14.8670325 128.28326,11.3999062 Z M88.9374811,42.2493842 C91.9104111,38.7783819 94.6720963,35.1252052 97.3775789,31.4352061 C94.9317916,31.6076903 88.1235107,38.7570636 85.6312109,43.9722882 C86.7513892,43.4141371 88.1855275,43.1253714 88.9374811,42.2493842 Z M121.352883,39.5419636 C124.364574,38.6388441 126.120424,36.751208 126.893696,34.1949533 C127.601075,31.8518814 127.787125,29.3537675 128.205739,26.9215465 C124.637835,30.4565036 122.271507,34.4701529 121.352883,39.5419636 Z M120.788918,18.1287282 C121.765682,20.7489376 123.75022,22.6385118 125.407231,24.7606489 C125.664988,25.0901131 126.362677,25.0726708 126.858811,25.2122086 C126.895634,24.7780911 127.10494,24.2645145 126.944084,23.9214841 C125.533202,20.8245206 124.089374,17.7411232 122.583529,14.6887342 C122.102899,13.7177838 121.420714,12.8456727 120.804422,11.8921645 C120.000142,13.2119594 120.112547,16.310861 120.788918,18.1287282 Z M98.4551206,12.2778315 C97.9938707,16.6597054 102.691643,25.2025185 107.902991,26.7626284 C106.015355,21.167551 102.176128,17.0027358 98.4551206,12.2778315 Z M107.848727,29.9623073 C102.838933,33.8635511 99.6276256,39.0497053 96.5112818,44.4722986 C101.742011,44.4529183 107.713065,34.6872116 107.848727,29.9623073 Z M119.754013,27.6812522 C115.199654,33.0108202 111.09298,38.4993063 108.474709,45.1583593 C112.744177,44.0129867 121.143576,31.0010886 119.754013,27.6812522 Z M36.3608077,7.37462884 C38.2465057,13.8495695 42.1361214,19.0260336 46.7970709,23.7761323 C46.6187727,16.1170585 42.6341938,11.0045492 36.3608077,7.37462884 Z M56.0588912,43.5788692 C58.4310335,43.952908 60.1461854,42.9315689 61.8419571,42.1253506 C65.7955276,40.2435286 68.7742716,37.1252468 71.6057258,33.8945595 C72.7065238,32.6425955 73.582511,31.191015 74.8092807,29.4874912 C67.314939,32.8964768 61.9640526,38.3558925 56.0588912,43.5788692 Z M68.097901,14.2100421 C66.1308058,12.1789922 63.2877235,10.992921 60.6539479,9.65956002 C61.9776188,12.8166023 63.1850082,15.9678306 66.0610369,17.9465538 C68.5320185,19.6442635 70.0436778,22.1385014 71.8324746,24.4137424 C72.489465,25.2548452 73.2627369,26.0087368 73.9798061,26.8013889 C74.1716705,26.6715413 74.3596589,26.5397556 74.5515234,26.4079699 C72.9894754,22.0416001 71.3673487,17.5880193 68.097901,14.2100421 Z M118.250105,26.3091306 C118.445846,26.2335477 118.641586,26.1540887 118.833451,26.0785057 C118.564065,24.8536741 118.593136,23.4447301 117.972968,22.4388952 C115.901219,19.0880504 113.660863,15.8360449 111.354613,12.6383041 C110.34684,11.2351741 109.028984,10.052979 107.837098,8.78357283 C107.682056,8.62077875 107.437865,8.54907184 106.852582,8.2176696 C108.651069,15.8786814 112.155018,21.9291947 118.250105,26.3091306 Z M97.6954149,28.8595712 C96.449265,21.4272463 92.9356261,15.3496007 86.8250341,10.8204368 C88.9258529,17.7411232 91.0731844,24.6366153 97.6954149,28.8595712 Z M79.2667376,42.1175985 C81.8462485,40.198954 84.309478,38.0671268 86.5362684,35.7492492 C87.6254383,34.6116287 88.0653699,32.8480261 88.5905747,31.189077 C82.7222357,34.3325531 77.3461551,38.0380564 72.4797749,42.8773042 C75.1736293,43.9063954 77.4256141,43.487782 79.2667376,42.1175985 Z M31.7405567,15.9096898 C29.8160981,14.1538394 28.2249798,12.0336403 26.445873,10.1091818 C24.7423493,8.2641822 22.4826124,7.42114143 19.6337161,6.52383597 C20.3120247,8.2099175 20.5504018,9.77777953 21.428327,10.7739242 C23.3799179,12.9968386 25.5621338,15.0453308 27.8296227,16.9523471 C29.808346,18.6112963 32.0254463,19.9892319 34.1456454,21.4718209 C34.4537913,21.6850036 34.8375202,21.7780288 35.4169896,22.028034 C34.6243375,19.5318581 33.564238,17.5725151 31.7405567,15.9096898 Z M88.4781692,28.0649811 C86.7572032,20.1035754 81.7881078,14.8573424 75.4875893,10.6246963 C77.5709659,18.0415171 81.1253033,24.3284693 88.4781692,28.0649811 Z M21.1318092,27.6754381 C19.0619988,28.8867036 16.9321096,29.9913777 14.9068737,31.3072965 C23.4070502,34.088362 30.0699793,30.1793661 36.546858,25.6095037 C31.3277574,25.865323 25.9594288,24.8381699 21.1318092,27.6754381 Z M64.3555752,25.869199 C60.8651926,17.2663072 55.5201203,10.6518287 46.9734312,6.32034337 C48.1788826,12.3417863 59.9194365,24.8808064 64.3555752,25.869199 Z M49.382396,27.0106956 C44.5043877,26.0455593 32.3859189,31.7355999 30.8878258,35.7550633 C39.0197776,38.1659661 46.6187727,34.3403052 49.382396,27.0106956 Z M2.63336295,15.0201365 C4.29425016,17.2934395 6.60049962,18.3457869 9.20908093,19.2682867 C13.0754403,20.6365322 17.0406389,20.307068 20.961263,20.6772307 C21.9302754,20.7683179 22.9399863,20.467924 24.1493137,20.3225722 C18.5929968,14.9891281 10.0211133,10.9347803 2.63336295,15.0201365 Z M49.9909357,40.7667953 C56.3088964,38.394653 62.779961,36.0980936 65.3129594,28.8208107 C61.7024193,28.4080114 46.4462885,36.4546902 42.9152074,40.7299728 C45.3706847,41.8927876 47.7951537,41.5923938 49.9909357,40.7667953 Z M34.6262755,22.7295989 L34.2929353,22.2567209 C32.0622688,20.7973882 29.7114447,19.4911596 27.614502,17.8612808 C25.8353953,16.4833452 24.4012569,14.671292 22.7171134,13.1615707 C20.6744353,11.3262613 19.3856489,9.10916099 18.8662583,6.43856288 C18.8178076,6.18274362 18.9205229,5.7273078 19.0949452,5.64203471 C19.3294462,5.51800113 19.7228652,5.59746014 20.0077548,5.70211348 C21.1259951,6.1187888 22.3140043,6.44243893 23.3159631,7.0587308 C24.9070814,8.03549528 26.4962617,9.07815259 27.8470649,10.3475588 C29.420741,11.8282097 30.5486714,13.8127471 32.2173108,15.1480461 C33.8704459,16.4775311 34.6902303,18.2023731 35.684437,19.915587 C36.3704978,21.1074722 36.2871627,22.8671987 38.2271255,23.2121671 C40.3279443,23.5842678 42.3783745,24.2005597 44.4598131,24.6811898 C45.1264936,24.8362318 45.8222445,24.8866205 46.5024912,24.9873978 C43.1787787,21.5435278 40.3957752,17.9136074 38.0875877,13.8553836 C36.6612015,11.3437035 35.5545894,8.8126432 35.2193111,5.95599472 C35.1979928,5.77963447 35.4286178,5.5703278 35.5778457,5.31644655 C37.0546205,6.43081078 38.5720939,7.35718661 39.8143678,8.56263801 C42.0295301,10.7080314 44.3648499,12.7332673 45.8416247,15.5821636 C47.2854532,18.3632292 47.5218922,21.4001139 48.1672544,24.3439735 C48.4618342,25.6831486 49.0645599,25.6889627 50.0665187,25.4719039 C50.4347434,25.3905069 50.8533567,25.3304281 51.2002632,25.4292674 C51.9192704,25.634698 52.5859509,26.1172662 53.304958,26.1909111 C55.2216645,26.3885897 57.1577512,26.4079699 59.0822098,26.5416936 C60.3923146,26.6327808 61.7024193,26.7955748 63.3691206,26.964183 C60.9136432,24.8653022 58.8263906,23.0784434 56.7333238,21.2935226 C55.9716801,20.6423463 55.0937549,20.0861332 54.4561447,19.3264275 C53.1014654,17.7159289 51.8630676,16.0065911 50.5955994,14.3263236 C48.8009885,11.9522433 47.0877747,9.52583631 46.4152801,6.55290634 C46.3668294,6.33584757 46.8319554,5.77963447 46.8687779,5.79513867 C48.4967186,6.53740215 50.2758254,7.09555327 51.6789553,8.15177676 C57.7604769,12.7274532 62.8322877,18.1577985 65.2179962,25.6211319 C65.4815675,26.4428543 65.7780853,26.8401494 66.7567878,26.882786 C68.9428797,26.9796872 71.1154055,27.2878331 73.4526633,27.5281482 C72.6483831,26.5048711 71.9584463,25.5629911 71.2026166,24.6753758 C69.5494815,22.735413 68.1230953,20.4853663 66.1327439,18.9814591 C62.9970198,16.6054407 61.5764477,13.2449058 59.8690479,9.99096225 C59.5899723,9.45412939 59.4291163,8.8514037 59.2120575,8.27968639 L59.5318316,8.02580515 C60.9330235,8.87465999 62.3109591,9.76615138 63.7392833,10.5626795 C66.9350861,12.3398482 70.1463931,14.0724424 71.6890608,17.6887966 C72.9119544,20.5590112 74.2278732,23.3924034 75.3267333,26.3110687 C75.6620116,27.2083741 75.8674422,27.7723393 76.9256037,27.8711786 C78.987662,28.0649811 81.0342162,28.3983213 83.0885224,28.6754589 C84.7494096,28.9002697 86.4141729,29.1250806 88.0769981,29.3498915 C84.5769254,26.7044877 81.103985,24.1986217 78.7609131,20.4543579 C76.5069903,16.8515699 74.756954,13.0685456 73.9894962,8.85721777 C74.4313658,8.95218098 74.6232303,9.22156642 74.8848636,9.35916618 C78.1155509,11.0607519 80.7958391,13.4076999 83.1117787,16.2120217 C85.3521353,18.9291324 87.4490781,21.71795 88.4452228,25.1792622 C88.774687,26.3246348 89.16423,27.4603173 89.6138517,28.5611154 C89.7572656,28.9138359 90.1797549,29.3828379 90.4898389,29.394466 C92.4433679,29.470049 94.3988348,29.4332265 96.5132198,29.4332265 C95.0810195,28.1580062 93.6740136,27.2645768 92.7495758,26.0145509 C90.2766562,22.6733962 88.5072396,18.9194423 87.1118618,15.0104463 C86.4645615,13.2119594 86.0052496,11.3437035 85.4645407,9.50839409 L85.9451709,9.30296346 C92.9821387,14.0065495 97.0442386,20.7237433 98.9086184,29.1250806 C102.030776,28.8653853 105.077351,28.611504 108.125864,28.3595608 L108.335171,28.0262206 C100.980367,24.6773138 98.1489127,18.3322208 96.7205885,10.6208203 C97.6954149,11.3223853 98.6043485,11.7468127 99.1993221,12.4445016 C102.883507,16.7624207 106.713044,20.9834386 108.660759,26.5029331 C108.899136,27.1793037 110.102649,28.0049023 110.782896,27.9409475 C112.97674,27.7393929 115.1357,27.1521714 117.753971,26.6230906 C113.746136,24.615297 111.866252,21.1152243 109.842954,17.799264 C107.83516,14.510436 105.821553,11.1363349 106.606453,6.79709746 C106.949483,7.0587308 107.176232,7.17695031 107.329336,7.35718661 C109.996058,10.4522121 112.81007,13.4348322 115.253919,16.6965279 C117.149307,19.2334023 119.077642,21.8555498 119.686182,25.1230595 C119.740446,25.4021351 120.085415,25.8478807 120.286969,25.8420667 C121.86646,25.8033062 123.44595,25.6734585 125.362656,25.553301 C122.833534,22.8633226 120.560231,20.4969944 119.961381,17.2294847 C119.591219,15.2023108 119.752075,13.0704836 119.724942,10.987107 C119.723004,10.7661721 120.029212,10.4367079 120.259837,10.3572489 C120.409065,10.3049223 120.775352,10.5665556 120.885819,10.7739242 C123.135866,15.0046323 125.337462,19.2624726 127.624331,23.4718624 C127.959609,24.0920303 128.697997,24.9195669 129.248396,24.9176289 C130.909283,24.9118148 132.572108,24.5455281 134.39579,24.2974609 C132.335669,21.9020624 130.422839,19.8341899 128.703811,17.6132136 C127.765807,16.4038861 126.924704,10.8107467 127.238664,9.73901903 C132.219388,14.5588866 132.849246,15.299212 136.541183,23.7664422 C142.653713,21.4388744 148.783685,19.1074307 154.915596,16.7740489 L155.11715,17.2759973 C154.75474,17.4949941 154.419461,17.7837598 154.02798,17.9252356 C152.345775,18.5318373 150.632561,19.0609181 148.958108,19.684962 C145.128571,21.1171623 141.335856,22.6462639 137.481125,24.0048192 C136.29893,24.4234326 135.882255,25.1249975 135.85706,26.2219195 C135.822176,27.4893877 135.891945,28.7607319 135.83768,30.0282001 C135.723337,32.7995755 133.143826,34.8364395 130.864709,35.3674583 C130.089499,35.5476946 129.533286,35.18916 129.85306,34.2395279 C130.517802,32.287937 131.151536,30.3227799 131.887986,28.3944453 C132.279467,27.3692302 132.860874,26.419598 133.411273,25.322676 C132.420942,25.4505857 131.581778,25.6715205 130.754241,25.6463262 C129.265838,25.5978756 128.858853,26.3847136 128.765828,27.6890043 C128.641794,29.394466 128.513884,31.115432 128.15535,32.7782572 C127.385954,36.3209665 125.548707,39.0458293 121.845141,40.0749204 C121.412962,40.195078 120.819926,40.2086441 120.480772,39.9915854 C120.275341,39.8597997 120.263713,39.1233503 120.420693,38.7745058 C121.889716,35.5302524 123.364553,32.287937 124.942105,29.0960102 C125.36847,28.2355272 126.145618,27.5494665 126.759972,26.7839467 C126.690203,26.5920823 126.618496,26.3982798 126.550665,26.2044773 C124.562252,26.3963418 122.575777,26.5882062 120.579611,26.7800707 C120.684265,27.4796976 120.918765,28.0107164 120.800546,28.4467719 C120.312164,30.2704532 120.029212,32.2491765 119.093146,33.8286667 C117.236518,36.9605147 114.957401,39.8423575 112.930227,42.8773042 C111.726714,44.6738532 110.108463,45.83473 108.098732,46.4897824 C107.837098,46.5750554 107.50182,46.4393937 107.201426,46.4064473 C107.267319,46.146752 107.317708,45.8812426 107.402981,45.6292994 C107.464998,45.445187 107.62004,45.286269 107.654924,45.1002186 C108.294472,41.8152667 110.358469,39.2183135 112.050364,36.5031408 C114.071724,33.2588874 116.569838,30.3111517 118.955546,27.1114729 C115.719045,27.8072238 112.622082,28.4739043 109.486358,29.1463989 C108.970843,30.4836359 108.406878,31.7666083 107.978574,33.0922173 C106.399084,37.9837917 103.703292,42.0032551 99.1838179,44.6544729 C97.9144117,45.3986744 96.604307,45.7048823 94.9938084,45.441311 C98.3465912,39.4043639 101.8893,33.7395175 107.596783,29.2064776 C105.306038,29.3537675 103.493985,29.4991194 101.68387,29.5785784 C100.10438,29.6464093 98.9105564,29.9177327 98.0074369,31.6115664 C96.6973322,34.0651057 94.9434198,36.2996482 93.2205158,38.5051204 C91.8890928,40.2163962 90.4239461,41.8656553 88.8076334,43.3036697 C87.4781484,44.4819887 85.7513684,44.8734697 83.7842733,44.4102818 C87.284346,38.7977621 91.3483839,33.9701425 96.763225,30.0630846 C94.7631835,30.0630846 92.9414402,30.0088199 91.125511,30.099907 C90.6913935,30.1231633 90.0944819,30.5301485 89.8948653,30.9235676 C89.2688833,32.1561513 88.9510473,33.5670333 88.2301021,34.7298482 C86.0517622,38.2241068 83.0265056,40.9334654 79.4411598,42.8521099 C77.0089388,44.1544625 74.287952,44.7881966 71.1716082,43.2901035 C76.2647372,37.9818537 82.1098199,34.0069649 88.1913416,30.2820814 C84.9819726,29.8460258 81.7861698,29.4099702 78.5884289,28.9739147 C77.2221215,28.7898023 76.1407037,29.2762465 75.2511503,30.3130898 C72.7782307,33.2026847 70.4196546,36.202747 67.7684367,38.9179197 C65.3323396,41.4121575 62.3264633,43.1932023 58.9291059,44.115702 C57.6209392,44.4703606 56.2119952,44.4548564 54.8495638,44.6079603 C54.7701048,44.3753973 54.6945218,44.1428344 54.6170008,43.9122094 C60.7198407,38.3849628 66.6269402,32.6135251 74.5844698,28.6638307 C72.254964,28.3382425 70.3983363,28.1250598 68.5572128,27.8072238 C67.3246291,27.592103 66.8246187,28.1696344 66.2780957,29.1890354 C64.5823241,32.3402637 62.6346092,35.3015655 59.4446205,37.2337761 C56.0918376,39.2648261 52.5026158,40.747415 48.756414,41.7842583 C46.4269082,42.4257445 44.0101913,42.5207077 41.399672,40.8385022 C48.0664771,34.5554259 56.198429,31.3286147 64.026111,27.7878435 C63.9292097,27.7587731 63.6191258,27.5959791 63.2993517,27.5746608 C59.7934649,27.3188415 56.2837021,27.0649603 52.7739393,26.8556536 C51.5956202,26.7839467 50.5180785,26.5765781 49.8727162,28.2394033 C49.2622384,29.8227695 48.0858574,31.272412 46.8997863,32.5321281 C44.5954748,34.9779153 41.5876604,36.2453835 38.343407,36.9275682 C35.3859812,37.5496742 32.4634399,37.5012236 29.2715131,36.049643 C33.9750992,30.8305424 39.7484749,27.9176912 46.6226487,25.9622242 C44.0140674,25.4874081 41.8240994,25.0726708 39.6283174,24.7063842 C39.3880023,24.6676237 39.0798564,24.8924345 38.8337272,25.0436005 C35.6980032,26.9506168 32.783214,29.1328327 29.3936087,30.7336411 C25.347013,32.6425955 21.3992566,33.61936 17.0348249,32.9313612 C15.6646414,32.7181785 14.3293423,32.291813 12.976601,31.9642869 L12.8060549,31.4875328 C13.0347418,31.3751273 13.2673048,31.272412 13.4940536,31.1503165 C16.3119416,29.6483473 19.0600607,27.9893981 21.9670979,26.6831694 C24.6900226,25.4622138 27.5815556,24.6501815 30.6436347,24.6831279 C32.9905826,24.7121982 35.3336545,24.617235 37.6767265,24.5649084 C37.7057968,24.5649084 37.7290531,24.3904861 37.7813798,24.1869935 C36.8957025,24.0435797 36.0139012,23.9176081 35.1437281,23.756752 C32.1843643,23.2102291 29.0370121,23.283874 26.5873489,21.0764638 C26.2908311,20.8090164 25.738494,20.7043631 25.3179426,20.7295574 C22.7054853,20.8904134 20.10078,21.1772411 17.4883227,21.2935226 C13.4843635,21.4737589 9.69746316,20.3942791 6.00164997,19.0240956 C3.91245929,18.2508237 2.37754369,16.7546686 1.24961328,14.7003624 C1.94536417,14.3999686 2.53839974,14.1809718 3.10042692,13.8960821 C6.35049442,12.244885 9.91258391,12.2196907 13.2227302,12.9580781 C18.8391259,14.2119802 23.000065,18.5163331 28.1048222,20.9136697 C30.124244,21.8613638 32.3277782,22.425329 34.4441012,23.1637165 L34.6262755,22.7295989 Z" transform="rotate(4 91.502 -3.22)"/>
</svg>
