<svg xmlns="http://www.w3.org/2000/svg" width="142" height="110" viewBox="0 0 142 110">
  <g fill="#889EB0" fill-rule="evenodd">
    <path d="M11.7052587,41.5089669 L11.4960045,41.1991155 C11.0131102,40.4776705 10.5624088,39.7654747 10.3186622,38.9862216 C10.1416009,38.4173899 10.2082863,37.825435 10.2795707,37.1964829 L10.3209617,36.8149495 C11.2568569,37.8508706 11.7604467,39.1781445 11.9352084,41.0349405 C11.9628024,41.3332303 11.9834979,41.6384571 11.9972948,41.9436838 L11.7052587,41.5089669 Z M6.3152382,32.7984429 C6.69005618,32.7360102 7.06717366,32.6712651 7.44199164,32.6111447 L7.73402774,32.5648982 C9.02634495,32.3614137 10.3531546,32.1486799 11.507502,32.5787721 L11.1441815,32.8932482 C8.54804961,33.6817506 6.47850248,33.7256848 4.97003256,33.020426 C5.42073394,32.9533686 5.86683632,32.8770619 6.3152382,32.7984429 Z M8.05595729,41.2222388 C8.4146788,42.7067507 8.56184659,44.0039644 8.51815615,45.2734302 C8.49056219,46.050371 8.35029289,46.7741284 8.16863264,47.4978858 L8.07665276,46.9082432 C8.01226685,46.5035865 7.94788094,46.0989298 7.88809403,45.6942731 C7.7616217,44.8017161 7.62595139,43.6270556 7.71563176,42.4431458 C7.74782472,42.0153659 7.84900258,41.6407694 8.05595729,41.2222388 Z M4.15371119,39.7261652 C5.51041432,38.0659167 7.24423492,36.0773182 8.38018634,36.0773182 L8.49746068,36.0865674 C8.26061251,36.5143474 8.06745478,36.9536889 7.91338849,37.3953428 C6.74524411,38.4312639 5.47132287,39.1018378 4.26638654,39.6729818 L4.15371119,39.7261652 Z M9.17121325,35.0298354 L8.70671489,34.8032277 C8.9205681,34.7962907 9.14131979,34.7824168 9.37126947,34.7662305 L9.17121325,35.0298354 Z M52.3373675,69.268415 C51.2359085,68.4776002 50.0976576,67.6590376 49.0352901,66.7803545 C46.8622656,64.9859912 44.9881757,63.1037596 43.309543,61.0272927 C39.7407239,56.6153788 36.9238403,51.4843321 34.3438049,46.6053287 L34.2587235,46.4434661 C33.3665188,44.7531573 32.442121,43.0050405 31.4510379,41.3286057 C30.9566461,40.4915444 30.4875487,39.7446638 30.0230504,39.0486543 C28.5812659,36.8912562 27.401624,35.1916981 25.975936,33.3788362 C25.240097,32.4469697 24.3088008,31.4341718 23.2027428,30.3774398 L23.0003871,30.1092102 L22.9337017,30.0282789 L22.9245037,29.8340437 C22.8394223,29.3415187 22.6163711,28.86518 22.4025179,28.4027152 C22.2714466,28.1252364 22.1403753,27.8477575 22.0483954,27.572591 C21.9081261,27.1609973 21.7448618,26.7424667 21.5080137,26.3748072 C22.2300557,26.1273885 22.9566967,25.852222 23.7155306,25.5631815 C26.2725711,24.5920055 28.9169924,23.5884569 32.0374096,23.4080957 C33.205554,23.3433506 34.3300079,23.3942217 35.4728578,23.5653337 C38.4070158,24.0092999 40.9226653,25.109966 43.3900254,27.0361318 C45.0893535,28.3634057 46.7863822,29.7508 48.4282229,31.0919479 L50.3804957,32.685139 C54.510392,36.0380086 59.0518982,39.4949328 64.2602585,42.0593 C69.5881926,44.6837876 75.7554431,46.3047266 82.5941466,46.8828076 C86.8206218,47.2389055 91.7507429,47.5487569 96.3727315,47.1163523 C102.011098,46.5960794 105.881151,45.8607605 108.617552,45.2780548 C112.586484,44.4386813 118.332926,42.1124835 121.165906,40.2048163 C125.843083,37.0531188 129.170455,34.1372784 132.288572,30.4537465 C132.771467,29.8802902 133.261259,29.2097163 133.776347,28.4998328 C134.650156,27.2974244 135.551558,26.0557065 136.494352,25.2278945 C137.011739,24.7723667 137.975228,24.3792717 138.386838,24.5804439 C138.437427,24.6081917 138.600691,24.6868108 138.577696,25.1284646 C138.481117,26.8927677 137.46474,28.6455092 136.480555,30.3404426 C136.149427,30.9138989 135.825198,31.471169 135.546959,32.0122528 C135.321609,32.449282 135.436583,32.9371823 135.825198,33.1961626 C136.206915,33.4551429 136.699007,33.3718992 137.014038,32.9926781 C137.303775,32.6481418 137.593511,32.2619838 137.839558,31.9012612 L138.290259,31.4619197 C138.543204,31.2121887 138.796148,30.9647701 139.06059,30.7381623 C139.649262,30.2410127 139.853917,30.243325 140.012582,30.421374 C140.240232,30.6687926 140.132156,31.1636299 140.026379,31.5151032 C139.741241,32.4885915 139.085885,33.3649622 138.437427,34.1789003 C138.264965,34.398571 138.067208,34.6066802 137.869451,34.8171016 C137.476237,35.2356323 137.071526,35.6657245 136.802485,36.1952467 C136.643819,36.5097227 136.680611,36.8727576 136.899063,37.1201762 C137.119815,37.3699072 137.457841,37.4485262 137.788969,37.3236607 C138.267264,37.1432995 138.734062,36.8057002 139.15487,36.3432354 L139.465302,36.2993012 L139.522789,36.5605938 C139.405515,37.0669928 139.028397,37.5618301 138.69727,38.0011716 L138.628285,38.0936646 C138.435127,38.3503325 138.216675,38.6000635 137.995923,38.8521068 C137.729182,39.1550212 137.46244,39.460248 137.27848,39.7284775 C137.000241,39.9758962 136.719703,40.267249 136.505849,40.5308539 C136.280499,40.8013958 136.2759,41.1759923 136.487453,41.4789067 C136.68751,41.7656349 137.016338,41.9113113 137.333668,41.8511909 C137.593511,41.9066866 137.855654,41.8280676 138.044213,41.6384571 L138.552402,41.1043102 L138.589194,41.0834993 C138.543204,41.3632905 138.460422,41.6500187 138.37764,41.9274975 L138.347746,42.0246151 C137.844157,43.7449841 137.037033,45.4376052 135.871188,47.1972836 C133.732656,50.4183508 131.421662,53.2162627 128.979596,56.1783496 L128.519697,56.730995 C125.813189,60.0121825 122.306457,62.8494039 118.916998,65.5964447 L118.372018,66.0380986 C115.394169,68.44754 111.73337,70.8939787 107.470103,73.3149818 C107.89551,71.4211885 106.860737,69.6060143 106.046715,68.4059182 C104.830281,66.6138672 103.128653,65.1409169 101.620183,63.9361962 C100.419846,62.9765817 98.8078987,61.7695487 96.9958952,60.9324874 C96.6394732,60.7752494 96.2508582,60.8978026 96.0531015,61.2446512 C95.8392483,61.62156 95.9289286,62.0840247 96.2623557,62.3221941 C96.6716661,62.6112346 97.0809765,62.8979627 97.4879875,63.1823786 C99.5299407,64.6113947 101.456919,65.9594795 103.193039,67.6844732 C104.05765,68.54697 105.267185,69.8742439 105.786871,71.4466241 C106.005324,72.1079487 106.026019,72.7623364 105.855856,73.3912885 C105.625907,74.2260374 105.166007,74.2214127 104.110538,74.0202406 L103.731121,74.1242951 C103.422989,74.1936648 103.163146,74.4387712 103.078064,74.7578719 C102.979186,75.1093451 103.124054,75.4608183 103.441385,75.6527412 C103.944975,75.957968 104.455463,76.2539454 104.956753,76.5499229 C106.902127,77.6898985 108.739425,78.7651291 110.441053,80.2057069 C111.542512,81.1398858 112.60488,82.1688699 112.913012,83.3805276 C113.027987,83.8314307 112.9705,84.1667177 112.731352,84.4095117 C112.230062,84.9205353 111.05042,84.9690941 110.218002,84.7794835 L109.746605,84.5505635 C109.415477,84.3910131 109.026863,84.511254 108.829106,84.8557902 C108.617552,85.2234497 108.709532,85.6720405 109.040659,85.8986483 C109.44997,86.1784395 109.877676,86.4512937 110.307682,86.7218356 C111.772462,87.6490775 113.29013,88.6086919 114.196131,90.0747052 C114.515761,90.5903534 114.61234,91.1661221 114.460573,91.6933319 C114.306507,92.243665 113.908694,92.7061298 113.33612,92.9951702 C112.149579,93.5917498 110.475546,92.8194336 109.247614,92.2552266 L109.114243,92.1951062 C108.845202,92.072553 108.562364,92.1488597 108.394501,92.3777798 L108.304821,93.0113565 L108.297922,93.4599473 L108.640547,93.8807903 C109.709813,94.4195618 111.036623,95.2173135 111.836848,96.6000832 C112.209366,97.2452215 112.292148,97.8834229 112.069097,98.4499423 C111.813853,99.1112669 111.151598,99.647726 110.254794,99.9228926 C107.230955,100.861696 103.505771,99.1575134 100.769369,97.9065462 L100.484232,97.8441134 L100.109414,97.5897578 C99.8518702,97.4278951 99.5276412,97.4833909 99.3367829,97.7099986 C99.1413257,97.9389187 99.1413257,98.2580194 99.3390824,98.4869394 C99.4793517,98.6464898 99.7024029,98.8730975 99.9783425,99.1505764 C100.978624,100.156437 103.05277,102.24909 102.905602,103.391378 C102.873409,103.624923 102.744637,103.802972 102.491693,103.948648 C101.293655,104.649283 99.4862502,104.526729 96.9866972,103.576364 C95.8990352,103.164771 94.8297692,102.639873 93.7995946,102.12885 C93.3833857,101.925365 92.9694762,101.719568 92.5486683,101.520708 C92.1094644,101.153049 91.6541641,100.801576 91.2149602,100.461664 C90.7665583,100.114815 90.3319534,99.7795285 89.9387394,99.4488662 C89.6765968,99.2245708 89.3086773,99.2430693 89.0465347,99.5043619 C88.779793,99.7841531 88.7567981,100.198059 88.9982452,100.473226 C89.5777184,101.132238 90.223877,101.733442 90.8516397,102.31846 C91.723149,103.130086 92.6176532,103.971772 93.3189998,104.947572 C93.5673454,105.294421 94.3077834,106.48758 93.4592691,107.363951 C92.7579225,108.092333 91.2563511,108.108519 90.5343091,108.117768 L90.3940398,108.120081 C85.1580856,108.120081 80.485508,104.561414 76.3625102,101.416654 L75.2679497,100.58653 C70.1745643,96.7480719 66.5344608,91.42279 63.2415814,86.2940557 C59.0082078,79.7039326 56.7822948,73.994805 56.2327151,68.3296115 C55.7866127,63.7095884 56.7202084,58.6664101 59.0082078,53.3434405 C59.1346801,53.0520877 59.0151062,52.7283623 58.7253696,52.5734367 L58.4218361,52.4994423 L57.9136473,52.7792335 C54.6368643,58.0652058 53.4664204,64.3200419 54.528788,70.8754801 C53.8044465,70.3228347 53.0594095,69.7886879 52.3373675,69.268415 Z M19.7534976,26.9066417 L19.9328584,26.8580829 L20.0179397,26.8349596 L20.0777266,27.0130086 L19.7534976,26.9066417 Z M98.7182183,44.921957 C84.836156,46.450403 74.0768104,43.5553736 70.5424838,42.4223349 C67.5738334,41.4673451 64.632777,40.110011 61.5537507,38.2740258 C62.1194269,35.1755118 62.6874027,32.5718352 63.5773079,30.007468 C64.4810102,27.401479 65.8055203,24.6844984 67.5094475,21.9282084 C70.4551029,17.1763828 74.3090596,12.887022 78.6505096,9.52259081 C83.8933623,5.46446242 88.9775498,3.07583186 93.7559041,2.42375652 C95.0344244,2.25033223 96.2922491,2.30351568 97.47649,2.3728854 C98.3663953,2.42375652 99.642616,2.57405758 100.424445,3.27931636 C101.629381,4.36610858 100.741775,6.43332612 100.155404,7.80453417 L100.08182,7.97333382 C99.9507486,8.28780986 99.8357737,8.60459823 99.7276974,8.92601125 C99.6012251,9.09018625 99.5483366,9.30292004 99.5828291,9.51796616 C99.6127225,9.73069996 99.7253979,9.91106122 99.8932612,10.0197404 C100.065723,10.2047264 100.295673,10.3110933 100.530222,10.3157179 L100.546318,10.3157179 L101.010817,10.1654168 C102.132971,10.2255373 102.910201,10.4290218 103.305714,11.180527 C103.761015,12.0545854 103.473578,13.2870541 103.130953,14.3738463 C102.753835,15.5577561 102.151367,16.799474 101.231568,18.2793613 C100.985522,18.6724564 100.704984,19.0539898 100.424445,19.4378356 C99.9553476,20.0852863 99.4655547,20.7535479 99.1252292,21.4911792 L99.0700413,21.8842742 L99.0286503,22.4808538 C99.1459247,22.7629573 99.4586563,22.9317569 99.7414944,22.8901351 L100.155404,22.832327 C100.836055,22.7282724 101.686869,22.6010946 102.13757,23.0080636 C102.500891,23.3364136 102.487094,23.9861766 102.418109,24.6405643 C102.27554,25.9562766 101.673072,27.0685043 101.033812,28.2454772 C100.787765,28.701005 100.541719,29.1565328 100.318668,29.6259345 C100.21979,29.836356 100.203693,30.0514021 100.26578,30.2479497 L100.300272,30.742787 C100.380754,30.9277729 100.544019,31.0595753 100.757872,31.1081342 C100.978624,31.1590053 101.238467,31.1705669 101.514406,31.1821285 C101.928316,31.2029394 102.445703,31.2260627 102.64116,31.4041116 C102.965389,31.707026 102.9148,32.6550788 102.498591,33.9407309 C102.201956,34.8587235 101.675371,35.8114009 100.895842,36.8565713 C100.532521,37.3421593 100.093317,37.7375667 99.628819,38.1560973 C99.3436814,38.4127653 99.0562443,38.6717455 98.7872032,38.9515367 C98.5296595,39.2197663 98.4698726,39.6012997 98.6308374,39.9250251 C98.7895027,40.2395011 99.1344272,40.4175501 99.4839507,40.359742 L99.5690321,40.345868 C100.334765,40.7505247 100.670491,41.0280036 100.511826,41.6245831 C100.35776,42.1980394 99.976043,42.6258194 99.5736311,43.0790348 C99.2471025,43.4420697 98.911376,43.8166661 98.6814263,44.2860679 L98.7182183,44.921957 Z M14.1059334,28.6316353 C14.5842288,28.7287529 15.0487271,28.9738592 15.5431189,29.2328395 L16.0949982,29.514943 L15.9800233,29.5172553 C14.5566348,29.5426909 13.340201,29.5611895 12.0593813,28.7426268 L11.7972386,28.5738272 L11.7834416,28.5645779 C12.576768,28.5090821 13.335602,28.4767096 14.1059334,28.6316353 Z M14.0829384,37.5017097 C13.6437346,36.8334481 13.3516985,36.1929343 13.1930332,35.5431713 C13.0481649,34.9535287 13.1240483,34.3615738 13.2344241,33.741871 C13.9265727,34.5650583 14.2921927,35.540859 14.44166,36.9097547 C14.4830509,37.2959128 14.5037464,37.6913202 14.5244418,38.0867276 L14.5267413,38.1191001 C14.3680761,37.910991 14.2186088,37.7051942 14.0829384,37.5017097 Z M17.1550662,31.3902377 C17.3942139,31.8272669 17.6080671,32.2642961 17.7529354,32.7475718 C17.9989815,33.5568851 17.9713876,34.4332559 17.9116006,35.1847611 C17.8840067,35.5593576 17.8288188,35.9362664 17.7621334,36.3131752 C17.6609555,35.9593896 17.5620771,35.6125411 17.4815947,35.2795664 C17.1596652,33.9337939 17.0515888,32.6550788 17.1550662,31.3902377 Z M140.334512,34.8702851 L140.610451,34.4795024 C141.284204,33.5291372 142.162612,32.0839348 141.974053,30.4838067 C141.89587,29.8062958 141.53255,29.2166532 140.973772,28.8698046 C140.598954,28.6339476 140.180445,28.5229561 139.718247,28.5576409 C140.171247,27.480098 140.467882,26.4372399 140.601253,25.4498776 C140.766817,24.2012227 140.240232,22.7513957 138.706468,22.5271003 C136.50125,22.2033749 134.962887,23.724884 133.829235,25.0775935 C133.206072,25.8221618 132.621999,26.6060396 132.058623,27.3621695 C131.237702,28.4628356 130.389188,29.6028113 129.414201,30.6202338 C127.172192,32.9603056 125.371686,34.5812446 123.194062,36.2137453 C120.225412,38.4335762 115.695403,41.5112792 110.618114,42.5795729 C107.187265,43.5646228 103.857594,44.2398214 100.67509,44.679163 C101.656975,43.8883482 102.362921,42.5171401 102.404312,41.4442219 C102.436505,40.6002236 102.034093,39.853343 101.321249,39.3978152 C101.797245,38.9584737 102.195057,38.4405131 102.530784,38.0057963 C103.50807,36.7432674 104.234711,35.2286953 104.581935,33.7464957 C104.745199,33.0412369 105.021139,31.2792461 104.020858,30.1323335 C103.744918,29.8132328 103.358603,29.6120606 102.87111,29.5265046 C103.951873,28.0026832 104.614128,25.688047 104.448564,23.8497495 C104.365782,22.9040091 103.993264,22.1409422 103.374699,21.6391679 C102.940094,21.290007 102.399713,21.0842102 101.801844,21.0287144 C102.314631,20.3697021 102.740038,19.6320708 103.126354,18.9614969 L103.225232,18.7857602 C104.225513,17.056142 104.871672,15.4860741 105.202799,13.9830636 C105.568419,12.3089411 105.391358,10.9886041 104.660118,9.95268305 C104.156528,9.23586265 103.291917,8.76877323 102.190458,8.61384753 C103.009079,7.21951623 103.399994,5.67025924 103.262024,4.28748956 C103.089562,2.47231533 101.900722,1.11729354 99.9208551,0.472155177 C97.47649,-0.323284235 94.6435099,0.0397506129 92.4474905,0.446719614 C90.0629123,0.88606115 87.5173693,1.78786746 84.6705922,3.19838502 C74.6286896,8.18144296 66.2746177,17.3336208 62.3263817,27.6835825 C60.9926735,31.1867532 60.3304184,34.4980009 60.3534134,37.5387068 C58.7989535,36.5605938 57.2191992,35.469177 55.5428661,34.2135851 C53.5767963,32.7406348 51.631422,31.1636299 49.7527331,29.6398085 L48.706462,28.793498 C46.3586758,26.8927677 43.9304071,24.9296048 41.3549707,23.3294766 C35.6683151,19.7962458 30.1564212,21.4842422 24.9963503,23.5190872 L23.76382,24.0092999 C23.5407689,24.0971682 23.3177177,24.1873488 23.096966,24.2775294 C23.2027428,23.6185171 23.106164,22.9988143 22.8072294,22.4369196 C22.6186706,22.0854464 22.342731,22.0438246 22.1518728,22.1131943 C21.9219231,22.2033749 21.7977503,22.4739168 21.8667352,22.7375217 C22.0437964,23.4427805 21.9242226,24.1503516 21.4965162,24.8972322 C19.9995438,25.4637516 18.2496267,26.0533942 16.5548975,26.2406924 L16.219171,26.416429 C16.0467087,26.5389822 15.9409319,26.7563406 15.9501299,26.980636 C15.9616273,27.237304 16.1179931,27.4477255 16.4077297,27.5633417 L16.6123849,27.65121 C16.9849034,27.8500698 17.4080108,28.1044254 17.8748087,28.4096522 L17.4425033,28.7033173 C16.3525418,28.0211818 15.3338647,27.4454131 14.1174309,27.1910575 C12.5123821,26.8534582 10.4865254,26.9367019 8.95506055,27.3991667 L8.52735414,27.6142128 L8.30660245,28.1576089 L8.72970986,28.4882712 C8.7734003,28.4882712 9.09073086,28.5252684 9.41266041,28.622386 C9.96224015,28.8189335 10.4635305,29.186593 10.9970137,29.5750634 C11.4753091,29.9242243 11.9697009,30.2872592 12.5077831,30.5184916 C12.9055961,30.6896035 13.3470995,30.8237183 13.8115978,30.9138989 C13.335602,31.2121887 12.8803016,31.5243524 12.4479962,31.8411408 C11.7305532,30.7659102 9.50464029,30.992518 8.48826269,31.0896356 L8.37098836,31.1011972 C7.54087001,31.1844408 6.70845216,31.3278049 5.90592777,31.4665444 L5.42073394,31.549788 C5.12409885,31.6006591 4.81826577,31.6330317 4.5101332,31.6677165 C3.98354843,31.7255246 3.43626819,31.785645 2.91658191,31.9290091 C2.67053575,31.9983788 2.50497198,32.2041757 2.49347449,32.4515943 C2.47967751,32.7151992 2.63834279,32.9603056 2.88898795,33.0574232 L3.30059788,33.1591654 C4.23189409,34.6760499 6.75444209,34.7685428 7.60295642,34.8009154 L7.92488597,34.8078523 C6.64636574,35.0807066 5.19998225,36.4264791 5.013723,36.604528 C3.39717674,38.1445357 2.00368167,39.8209705 0.982705085,41.4534712 C0.442323333,41.9113113 0.115794785,42.4015239 0.0123174284,42.9125475 C-0.0359720048,43.1530292 0.0606068615,43.4212588 0.251465097,43.5831214 L0.851633766,43.6756144 C1.3322286,43.4744422 1.74613803,43.1414676 2.14395098,42.8200546 C2.4198906,42.5980715 2.67743424,42.38765 2.95107436,42.2257873 C3.53054756,41.8789387 4.15831019,41.573712 4.76537735,41.2800469 C5.00682451,41.1621183 5.25287067,41.0418775 5.49201834,40.9216367 C6.15427343,40.5909743 6.88091442,40.2001916 7.52017453,39.7146036 L7.52017453,39.8279075 C6.50379694,40.4753582 6.13127846,42.0916725 6.3865226,44.7531573 C6.46930449,45.6179664 6.6095738,46.4874002 6.74524411,47.3290861 L6.87861492,48.1684597 C6.97749329,48.8020364 7.0395797,49.319997 7.07407215,49.8032727 L7.07867115,50.1593705 C7.07407215,50.4599726 7.06947316,50.8021966 7.20974246,51.1282342 L7.66964183,51.4542719 C7.87659654,51.4889568 8.07665276,51.4010884 8.1962266,51.2461627 C8.31580043,51.0866124 8.39858232,50.9016265 8.44687175,50.6773311 C9.48394482,49.3731804 9.73918896,47.4678255 9.8587628,45.5994679 C9.95764116,44.1103313 9.87255978,42.0176782 8.93666457,40.3828652 C9.01944646,40.1146356 9.09532985,39.8464061 9.16891375,39.5781765 C9.29998507,40.0337043 9.49084331,40.4961691 9.73688947,40.9632585 C9.99213361,41.4395972 10.2887687,41.8997497 10.5739063,42.3414035 C10.7302721,42.5818852 10.8866379,42.8246792 11.0361052,43.0674732 C11.3097453,43.516064 11.4799081,43.9947151 11.6592688,44.4988017 C11.7765431,44.8317763 11.8938175,45.164751 12.0409853,45.486164 C12.0639802,45.9971876 12.1421631,46.3902826 12.2870314,46.714008 C12.3882093,46.9452403 12.608961,47.0562319 12.8619056,47.0562319 C13.1332463,47.035421 13.3723939,46.8481227 13.4436783,46.5960794 C13.6460341,45.893133 13.5885466,45.0167622 13.5333587,44.2421337 C13.5126632,43.9322823 13.4919678,43.6316802 13.4873688,43.358826 C13.4758713,42.1564176 13.3723939,41.0002557 13.1792362,39.9250251 C12.8481087,38.0959769 12.0110918,36.6230266 10.8567444,35.8137132 C11.0981916,35.4946125 11.3626337,35.1824488 11.6454718,34.8864714 L11.8179341,34.7107347 C11.7604467,35.7281572 12.0823762,36.6738977 12.4135038,37.3583456 C12.7446313,38.0474181 13.1953327,38.6717455 13.6276381,39.2752621 L13.9196742,39.6845434 C14.1243294,39.9735839 14.3105886,40.274186 14.4968479,40.5747881 C14.7635895,41.0141296 15.0418286,41.4673451 15.3729562,41.8766264 C15.5316214,42.0731739 15.7799671,42.1356067 16.0076173,42.0338644 C16.2582624,41.9205606 16.4123287,41.6361447 16.3663388,41.3725398 C16.3203489,41.0858117 16.228369,40.7967712 16.0926987,40.4846074 C16.0628052,40.1007617 16.0398102,39.6799187 16.0168153,39.2382649 C15.9018404,37.018434 15.7638706,34.2945164 14.1703193,32.8585633 C14.765889,32.4677806 15.3844536,32.0978088 15.9915208,31.7370862 C15.835155,32.6458295 15.844353,33.6008193 16.0168153,34.6806745 C16.1248916,35.3466238 16.2904554,36.0010115 16.4514202,36.6345882 L16.575593,37.1271132 C16.6606744,37.4785864 16.7296593,37.8462459 16.7986442,38.2139054 C16.8975226,38.7480522 16.9987004,39.3006976 17.1619647,39.8232828 C17.2217516,40.0152057 17.3942139,40.4568596 17.7552349,40.4568596 L17.7851283,40.4545472 C18.0932609,40.4337363 18.3117131,40.2302518 18.3393071,39.9597099 L18.3875965,39.7909103 C19.6316243,35.4738016 19.4982535,32.1949264 18.024276,30.4768697 C18.5025713,30.1485197 18.9578717,29.8039835 19.3878776,29.4501979 C20.1490111,30.0028433 20.8733525,30.5739873 21.4022368,31.0341398 C22.4807008,31.9775679 23.3637076,33.1244806 24.2168209,34.2320837 C24.485862,34.5812446 24.7549032,34.9280932 25.0262438,35.2680048 C26.4910233,37.0947407 27.7189546,39.2220786 28.9077944,41.2800469 L29.4343792,42.1911025 C30.3403809,43.7449841 31.1750983,45.3774848 31.9799222,46.956802 C32.497309,47.9649752 33.0100967,48.9731484 33.548179,49.96976 C35.6568176,53.8891489 38.5541836,58.9554505 42.2655714,63.3881754 C43.7740413,65.1894757 45.5584509,66.9098447 47.7176784,68.6510245 L48.3753345,69.1851713 C50.0493682,70.5471301 51.9487525,72.0894501 53.9792082,72.9357607 C54.3149348,73.0791247 54.6552603,73.0305659 54.9151034,72.8270814 C56.2856035,78.7443182 59.3692288,84.0372276 62.2734932,88.5046373 C65.2444431,93.0737893 68.9765265,98.276518 74.1365973,102.21903 L74.3872425,102.413265 C78.7930784,105.782321 83.7829865,109.599968 89.5455255,109.976877 C89.7754752,109.993063 90.0192218,110 90.265268,110 C91.9507991,110 93.8823765,109.618467 94.912551,108.520113 C95.5081207,107.886536 95.7518674,107.08416 95.639192,106.136107 C95.5587097,105.458596 95.32876,104.801896 94.949343,104.154445 C95.9542231,104.679343 96.8855193,105.07475 97.800719,105.368415 C99.6932049,105.974244 102.247946,106.166167 103.758715,104.878203 C104.225513,104.478171 104.473859,103.978709 104.499153,103.391378 C104.535945,102.454887 103.990964,101.444402 103.305714,100.563406 C106.345649,101.812061 109.838585,102.619062 112.55889,100.598091 C113.391307,99.9783883 113.865004,99.155201 113.92709,98.2163976 C113.996075,97.1226684 113.503983,95.8763258 112.588783,94.7664103 C112.938307,94.7548487 113.283231,94.7062899 113.614359,94.6184216 C115.194113,94.2045156 116.373755,92.5118946 116.196694,90.9256404 C116.005835,89.2122084 114.766407,87.5912694 112.5129,86.0905712 C113.549973,85.9633934 114.06736,85.3390659 114.331802,84.7424864 C115.033148,83.1423582 113.979979,81.569978 113.124566,80.5294323 C111.765563,78.871496 109.978854,77.5927809 108.408298,76.5244873 L107.994388,76.2400715 C107.674758,76.0204007 107.34823,75.7984176 107.014803,75.5787468 C111.878239,73.351979 117.689067,68.9932485 120.793388,66.5306235 C122.874432,64.8796243 124.796812,63.1592553 126.503038,61.4157631 C128.213864,59.6676463 129.828111,58.0143347 131.571129,56.074295 C135.100857,52.1387198 138.166086,48.5291822 139.879211,44.2375091 L139.952795,44.0478985 C140.444888,42.8316162 141.355488,40.5678511 140.405796,39.3446318 L140.226435,39.1457719 C140.769117,38.3595818 141.091046,37.6265751 141.217518,36.9120671 C141.373884,36.0241347 141.02666,35.2495062 140.334512,34.8702851 Z"/>
    <path d="M35.4098989,30.1817677 L35.1459867,30.3382025 C34.8059461,30.5451777 34.4303788,30.7762198 34.118252,30.7016124 C33.8010499,30.6221917 33.7401471,30.0397731 33.7985123,29.6522962 C33.8391142,29.3899672 33.6995452,29.151705 33.4483212,29.0482174 C33.1767962,28.9423231 32.8494437,29.0145237 32.6692729,29.228719 C32.237878,29.7413437 31.9612778,30.2274948 32.0044173,30.9302478 C32.0424816,31.53914 32.3596836,32.0734249 32.9433355,32.521069 C33.3518918,32.8363452 33.8771784,33 34.4379917,33 L35.0216435,32.9422395 C35.8387561,32.7785847 36.5315254,32.3020603 36.8741037,31.6715079 C37.1126397,31.2310839 37.0035221,30.6390385 36.620342,30.2948821 C36.2879142,29.994046 35.8235304,29.9507256 35.4098989,30.1817677"/>
  </g>
</svg>
