<svg xmlns="http://www.w3.org/2000/svg" width="99" height="20" viewBox="0 0 99 20">
  <g fill="#889EB0" fill-rule="evenodd">
    <path d="M93.953116 7.34148755C93.9386155 6.9387212 93.5853305 6.61058888 93.1872258 6.63117757 92.8128492 6.64919268 92.3224685 7.28872902 92.3264232 7.75068786 92.3290597 8.05823149 92.7429831 8.45070349 93.0356296 8.42368083 93.4442801 8.38507703 93.9702529 7.76484259 93.953116 7.34148755zM82.7152265 15.1806332C82.7310452 14.6183044 82.2222094 14.2412739 81.4431369 14.2412739 80.898709 14.2399872 80.3806455 14.701946 80.3490081 15.2115162 80.3186889 15.7056449 80.8960725 16.2460981 81.4734561 16.2666868 82.0086565 16.2834151 82.700726 15.6786222 82.7152265 15.1806332zM88.9649431 14.184655C89.5963741 15.3427691 90.2673519 15.5460825 91.0820165 14.8537876 91.6264444 14.3931156 91.5868976 13.8835454 90.9765583 13.4897866 90.1249833 12.9441862 89.7743348 13.0098126 89.1877235 13.8333604 89.1020387 13.9517454 89.0321727 14.0778512 88.9649431 14.184655zM96.2639688 8.68747348C96.2731964 9.34631172 96.8202608 9.95239143 97.406872 9.94981784 98.0475306 9.94595746 98.4522264 9.5277496 98.4509082 8.86762456 98.4509082 8.19077122 97.9091167 7.72881237 97.1221349 7.73138596 96.6554824 7.73395955 96.2573776 8.17661649 96.2639688 8.68747348zM82.6427239 7.74811428C82.6690885 8.37992985 83.4652979 9.16101347 84.0795919 9.1545795 84.7848436 9.14685874 85.6588285 8.16503535 85.615327 7.4302763 85.5718255 6.69680404 84.8837107 6.21039612 83.975452 6.26830183 83.3110653 6.31076601 82.6150412 7.08412886 82.6427239 7.74811428zM76.3534605 5.84494679C75.3476529 5.86038831 74.9956862 6.36223775 74.9442753 7.59627265 74.9152743 8.27055241 75.6679822 8.90236799 76.4918744 8.89078685 77.3302671 8.88306608 78.0935208 8.04922394 78.0816568 7.14460815 78.0724292 6.35323019 77.3750868 5.82821847 76.3534605 5.84494679zM72.5661929 18.5108546C73.24508 18.5224357 73.4902704 18.4259262 73.8396007 17.9639674 74.0518353 17.6808728 74.24166 17.3694688 74.3787557 17.04391 74.6437194 16.4159549 74.4657587 15.7828525 73.8896933 15.3929541 72.8456571 14.6826441 72.2643188 14.7431234 71.1833722 15.5602372 70.3977086 16.1508754 70.2619312 16.9268118 70.8300873 17.7130426 71.2848757 18.3422846 71.9769452 18.4284998 72.5661929 18.5108546zM88.7606178 13.2118392C88.0210922 12.5620085 87.2103823 12.3561216 86.345625 12.2995027 85.7076029 12.2557517 85.0247611 12.3561216 84.4460592 12.1592422 83.8726302 11.9662232 83.326884 11.9160382 82.7600462 11.9507816 81.4273182 12.0305628 80.0985449 12.147661 78.7368158 12.2493177 79.3010172 13.1230505 80.2185036 13.6454886 81.1069889 13.6454886 81.3495428 13.6454886 81.5947331 13.6673641 81.8359687 13.6943867 82.9063694 13.8114849 83.2754732 14.1563456 83.2926101 15.0416595 83.3084288 15.8381846 82.6598609 16.6051135 81.849151 16.7466608 80.7062477 16.9499741 79.2720162 16.0543659 79.9087201 14.5951421 79.9667221 14.4626024 79.9825408 14.3133344 80.0418611 14.0739908 79.3708833 13.6403414 78.7209971 13.1436391 78.0025631 12.783337 77.5332741 12.5478538 76.9677545 12.4564915 76.4338724 12.3921518 73.6629582 12.0511515 70.9170903 12.5620085 68.1593583 12.6405029 68.1356302 12.6405029 68.1158568 12.6700992 67.9945799 12.7653219 68.922612 13.399711 69.8255979 14.0160851 70.7285837 14.6324592 71.0462766 14.8525008 71.3033309 14.6376063 71.5735676 14.5166477 72.9142049 13.9079944 74.6648111 14.6723497 75.0800527 16.0479319L75.1604646 16.3014302C75.34238 17.44925 73.9081485 19.0757569 72.717789 18.9972625 72.1245867 18.9573719 71.5089744 18.8106774 70.9605918 18.5816282 70.0628788 18.2071713 69.6146815 16.9087967 69.9811487 15.9617168 70.0866069 15.6889166 70.2302937 15.4289843 70.3739805 15.125301 69.3826734 14.2708702 68.3320461 13.52453 67.1693695 12.939039 66.9096786 12.8090729 66.5788035 12.7177105 66.2953846 12.7434464 64.9639748 12.8734125 63.6945218 12.5285519 62.4079317 12.3252385 61.4390345 12.1733969 60.4820013 11.9649364 59.5262864 11.7436079 59.2468221 11.6792682 58.9897678 11.6342304 59.0003136 11.1375282 59.8017959 11.2327509 60.5716408 11.3266868 61.3414857 11.4141888 62.7295792 11.5737512 64.118991 11.7436079 65.509721 11.886442 65.8854159 11.9224722 66.2967029 11.9906722 66.5418932 11.5364341 66.6051681 11.4193359 66.8556313 11.3498491 67.0230462 11.3434151 68.412458 11.3112453 69.6133633 10.7579241 70.770767 10.0772104 71.7080268 9.5264628 72.6492412 8.97957559 73.5838645 8.42110724 74.0439259 8.14702024 74.4051203 7.79958601 74.3247084 7.20251386L74.333936 7.11501191C74.6081273 5.49751256 75.898672 4.68168552 77.5319559 5.11533491 77.7560546 5.17324061 77.995972 5.30063316 78.1515228 5.46662952 78.8066819 6.17050552 78.7592257 7.89223514 78.0882479 8.64629609 77.3131301 9.52131563 76.2901856 9.63841383 75.122236 8.98086239 74.9139561 8.8611906 74.728086 8.7042018 74.4578494 8.51118278 73.4665423 9.12240966 72.4620529 9.78510828 71.4153803 10.3757465 70.3752988 10.9638111 69.2943522 11.4798152 68.2292244 12.0279892 68.8474731 12.0279892 69.4986775 12.0537251 70.1472454 12.0254157 72.3961415 11.9250458 74.6437194 11.8040872 76.8926156 11.6972833 77.1984443 11.6831286 77.4502258 11.6470984 77.7099166 11.4154756 78.0157454 11.1439621 78.4375782 11.0011281 78.8080001 10.8016751 79.3919749 10.4876975 80.018133 10.2277652 80.5493787 9.84430078 81.3403152 9.2729645 82.0416122 8.60254512 82.0534763 7.52549901 82.0547945 7.38266494 82.1193876 7.23725728 82.1721167 7.0969968 82.695453 5.69181837 83.4837531 5.32250865 84.9469856 5.78961467 85.8776543 6.08815074 86.4919483 7.30674413 86.0767066 8.17919008 85.7629685 8.83545473 85.2238134 9.34502493 84.5119706 9.60367041 83.9978618 9.78896866 83.4982536 9.71948182 83.0671932 9.3308702 82.8734138 9.1545795 82.6321781 9.02847374 82.451581 8.90494157 81.8359687 9.4492552 81.3179053 10.0012896 80.7022931 10.422071 80.0919537 10.8402789 79.3840655 11.1246602 78.564128 11.5493021 78.8462287 11.6020606 78.9780515 11.6548191 79.1046013 11.6470984 81.895289 11.4772416 84.6925677 11.3459887 87.4384356 10.7540637 89.0071264 10.4169239 90.2673519 9.54190432 91.4471655 8.54206582 91.5974434 8.41209969 91.6739006 8.13415231 91.6778553 7.9205446 91.6949922 7.28615543 92.0021393 6.78173241 92.3686065 6.30433204 92.6955269 5.87969021 93.1542701 5.78446749 93.6776064 5.88226379 94.1785329 5.97619972 94.3380384 6.3133396 94.46327 6.74827578 94.683414 7.51005749 94.5871834 8.13801269 93.9307061 8.67074517 93.5681935 8.96542086 93.1964534 9.05163602 92.7508925 9.00273787 91.8769076 8.90236799 91.5789882 9.04391526 90.8671454 9.90735366 92.4094716 9.74521769 93.8792952 9.61010438 95.2911169 9.15071912 95.4545771 9.09796059 95.6259467 8.80457168 95.6404472 8.61283946 95.755133 6.99662691 96.9151732 6.96831745 98.067304 7.09828359 98.4443171 7.14203457 98.756737 7.36464983 98.8266031 7.77385014 98.9004238 8.20878632 99.0098367 8.65015647 98.9992909 9.08637945 98.9808357 9.71948182 98.6921439 10.2277652 98.026439 10.4581012 97.3541429 10.6910109 96.7714864 10.5314485 96.2547412 10.0849312 96.1426919 9.98713485 96.0543706 9.86617627 95.8882739 9.68216481 92.6691624 10.2843841 89.422368 10.8943242 86.1768919 11.5016907L86.1663461 11.6766946C86.4352645 11.7539022 86.7002282 11.8401174 86.9731013 11.9031703 87.209064 11.9597892 87.4634819 11.961076 87.6902171 12.0369968 88.5193822 12.3188046 89.3024093 12.6700992 90.2515331 12.5259783 90.9739218 12.4166009 91.5104404 12.98279 91.8571342 13.5322508 92.046959 13.8333604 92.0851876 14.384108 91.9283185 14.7006592 91.6027163 15.362071 91.0002863 15.7892864 90.1856217 15.8008676 89.3511837 15.8085883 88.8463026 15.2848634 88.4455614 14.6774969 88.3229663 14.4921987 88.3809683 14.160206 88.4323792 13.9092812 88.4798354 13.686666 88.6274768 13.4833526 88.7606178 13.2118392zM5.96340237 8.42368083C6.2560572 8.45070349 6.66999241 8.05823149 6.67262894 7.75068786 6.67658373 7.28872902 6.18618915 6.64919268 5.81180189 6.63117757 5.41368586 6.61058888 5.06039084 6.9387212 5.04588993 7.34148755 5.03007075 7.76484259 5.55474022 8.38507703 5.96340237 8.42368083zM17.5259047 16.2666868C18.104623 16.2460981 18.6807048 15.7056449 18.6503847 15.2115162 18.6200646 14.701946 18.1006682 14.2399872 17.5562248 14.2412739 16.7758119 14.2412739 16.2682799 14.6183044 16.284099 15.1806332 16.2986 15.6786222 16.9906891 16.2834151 17.5259047 16.2666868zM9.81273617 13.8333604C9.22347171 13.0098126 8.87544975 12.9441862 8.0225323 13.4897866 7.4121756 13.8835454 7.37262765 14.3931156 7.9170711 14.8537876 8.73175887 15.5460825 9.40407402 15.3427691 10.0342047 14.184655 9.96697317 14.0778512 9.89710513 13.9517454 9.81273617 13.8333604zM1.87809913 7.73138596C1.09109493 7.72881237.547969748 8.19077122.547969748 8.86762456.546651483 9.5277496.951358838 9.94595746 1.59203563 9.94981784 2.17866355 9.95239143 2.72574353 9.34631172 2.73497138 8.68747348 2.74156271 8.17661649 2.34344668 7.73395955 1.87809913 7.73138596zM15.0238377 6.26830183C14.1155531 6.21039612 13.4261005 6.69680404 13.383916 7.4302763 13.3417316 8.16503535 14.214423 9.14685874 14.921013 9.1545795 15.5340063 9.16101347 16.3302383 8.37992985 16.3566036 7.74811428 16.3842872 7.08412886 15.6882433 6.31076601 15.0238377 6.26830183zM20.9178005 7.14460815C20.9059361 8.04922394 21.6692116 8.88306608 22.5076281 8.89078685 23.3315437 8.90236799 24.0842731 8.27055241 24.0552712 7.59627265 24.0038589 6.36223775 23.6518821 5.86038831 22.6473642 5.84494679 21.6243906 5.82821847 20.9270284 6.35323019 20.9178005 7.14460815zM28.1695763 17.7130426C28.7390668 16.9268118 28.6019672 16.1508754 27.8162813 15.5602372 26.735304 14.7431234 26.1539491 14.6826441 25.1098832 15.3929541 24.5338014 15.7828525 24.3558356 16.4159549 24.6208069 17.04391 24.7579065 17.3694688 24.9477366 17.6808728 25.1599773 17.9639674 25.5093175 18.4259262 25.7531965 18.5224357 26.4347395 18.5108546 27.0226857 18.4284998 27.7147749 18.3422846 28.1695763 17.7130426zM10.5654655 13.9092812C10.6181961 14.160206 10.6761997 14.4921987 10.5549194 14.6774969 10.1541668 15.2848634 9.64795304 15.8085883 8.81217303 15.8008676 8.00012179 15.7892864 7.39767469 15.362071 7.07074497 14.7006592 6.9151897 14.384108 6.95210112 13.8333604 7.14193128 13.5322508 7.48863497 12.98279 8.02648709 12.4166009 8.74757805 12.5259783 9.69672885 12.6700992 10.4797783 12.3188046 11.3089669 12.0369968 11.5370268 11.961076 11.7901337 11.9597892 12.0261031 11.9031703 12.2976657 11.8401174 12.5652735 11.7539022 12.8341995 11.6766946L12.8223352 11.5016907C9.57676673 10.8943242 6.32988004 10.2843841 3.11067691 9.68216481 2.94457552 9.86617627 2.85625176 9.98713485 2.74288097 10.0849312 2.22743936 10.5314485 1.64476623 10.6910109.972451078 10.4581012.306727253 10.2277652.0180272183 9.71948182.000889773345 9.08637945-.0109746117 8.65015647.0984413833 8.20878632.172264223 7.77385014.242132268 7.36464983.554561073 7.14203457.931584863 7.09828359 2.08374847 6.96831745 3.24382167 6.99662691 3.35851073 8.61283946 3.37169338 8.80457168 3.54438609 9.09796059 3.70916922 9.15071912 5.11971277 9.61010438 6.58825998 9.74521769 8.13194829 9.90735366 7.42140346 9.04391526 7.1221573 8.90236799 6.24814761 9.00273787 5.80257404 9.05163602 5.43214157 8.96542086 5.0696187 8.67074517 4.41180446 8.13801269 4.31557112 7.51005749 4.53572137 6.74827578 4.66227481 6.3133396 4.82046661 5.97619972 5.32140731 5.88226379 5.84475852 5.78446749 6.30351474 5.87969021 6.63044446 6.30433204 6.99692213 6.78173241 7.30407787 7.28615543 7.32121532 7.9205446 7.32517011 8.13415231 7.40162948 8.41209969 7.55322996 8.54206582 8.73307713 9.54190432 9.99202021 10.4169239 11.5607556 10.7540637 14.3053833 11.3459887 17.1027416 11.4772416 19.8961451 11.6470984 20.0213803 11.6548191 20.1532068 11.6020606 20.4366338 11.5493021 19.6153547 11.1246602 18.9074464 10.8402789 18.2970897 10.422071 17.6814599 10.0012896 17.1647001 9.4492552 16.547752 8.90494157 16.3658315 9.02847374 16.1259072 9.1545795 15.9334406 9.3308702 15.5010496 9.71948182 15.0014272 9.78896866 14.4886221 9.60367041 13.776759 9.34502493 13.2362704 8.83545473 12.9225233 8.17919008 12.5072698 7.30674413 13.1215813 6.08815074 14.0522764 5.78961467 15.5155506 5.32250865 16.303873 5.69181837 16.8272242 7.0969968 16.8812731 7.23725728 16.9445498 7.38266494 16.9458681 7.52549901 16.9577325 8.60254512 17.6590494 9.2729645 18.4500084 9.84430078 18.9812692 10.2277652 19.6074451 10.4876975 20.1914365 10.8016751 20.561869 11.0011281 20.985032 11.1439621 21.2895513 11.4154756 21.5492495 11.6470984 21.8010381 11.6831286 22.1068756 11.6972833 24.3558356 11.8040872 26.6034775 11.9250458 28.8524376 12.0254157 29.5010239 12.0537251 30.1522468 12.0279892 30.7718314 12.0279892 29.705355 11.4798152 28.6243777 10.9638111 27.5855849 10.3757465 26.5375642 9.78510828 25.5330463 9.12240966 24.541711 8.51118278 24.2714667 8.7042018 24.0855913 8.8611906 23.8773054 8.98086239 22.7093227 9.63841383 21.686349 9.52131563 20.9112092 8.64629609 20.2415306 7.89223514 20.1927548 6.17050552 20.8479325 5.46662952 21.0021695 5.30063316 21.243412 5.17324061 21.467517 5.11533491 23.1008474 4.68168552 24.3914288 5.49751256 24.6656279 7.11501191L24.676174 7.20251386C24.5944416 7.79958601 24.9556462 8.14702024 25.4157207 8.42110724 26.3503706 8.97957559 27.2916118 9.5264628 28.2288982 10.0772104 29.3876531 10.7579241 30.5872743 11.3112453 31.9780439 11.3434151 32.1441453 11.3498491 32.3959339 11.4193359 32.4578923 11.5364341 32.7030896 11.9906722 33.1143883 11.9224722 33.4914121 11.886442 34.8821817 11.7436079 36.2703147 11.5737512 37.6584478 11.4141888 38.4283145 11.3266868 39.1981813 11.2327509 39.9996864 11.1375282 40.0102325 11.6342304 39.7531708 11.6792682 39.4736987 11.7436079 38.5192748 11.9649364 37.5622144 12.1733969 36.5919714 12.3252385 35.3053447 12.5285519 34.0358555 12.8734125 32.7044079 12.7434464 32.4209809 12.7177105 32.0900964 12.8090729 31.8303982 12.939039 30.6676885 13.52453 29.6170313 14.2708702 28.625696 15.125301 28.7693869 15.4289843 28.914396 15.6889166 29.0185389 15.9617168 29.3836983 16.9087967 28.9368065 18.2071713 28.039068 18.5816282 27.4906698 18.8106774 26.8750401 18.9573719 26.2805025 18.9972625 25.0927458 19.0757569 23.6571552 17.44925 23.8390758 16.3014302L23.9194899 16.0479319C24.3347434 14.6723497 26.0853993 13.9079944 27.4260748 14.5166477 27.6976374 14.6376063 27.9520626 14.8525008 28.272401 14.6324592 29.1754125 14.0160851 30.0771057 13.399711 31.0051643 12.7653219 30.8838839 12.6700992 30.8627917 12.6405029 30.8416994 12.6405029 28.0825708 12.5620085 25.3366248 12.0511515 22.5656318 12.3921518 22.0317344 12.4564915 21.4661988 12.5478538 20.9982147 12.783337 20.278442 13.1436391 19.6285374 13.6403414 18.9575405 14.0739908 19.0168624 14.3133344 19.0326816 14.4626024 19.0906852 14.5951421 19.7287255 16.0543659 18.2931349 16.9499741 17.1501992 16.7466608 16.3394662 16.6051135 15.6908798 15.8381846 15.706699 15.0416595 15.7251547 14.1563456 16.0929506 13.8114849 17.1647001 13.6943867 17.4046243 13.6673641 17.6498216 13.6454886 17.8923823 13.6454886 18.780893 13.6454886 19.6984054 13.1230505 20.2626228 12.2493177 18.9008551 12.147661 17.572044 12.0305628 16.2405963 11.9507816 15.6724241 11.9160382 15.1253441 11.9662232 14.5532171 12.1592422 13.9744988 12.3561216 13.2916375 12.2557517 12.6549155 12.2995027 11.7901337 12.3561216 10.9780824 12.5620085 10.2385358 13.2118392 10.3716805 13.4833526 10.5206445 13.686666 10.5654655 13.9092812z"/>
    <path d="M50.5304174,0.443246087 C49.6986426,0.443246087 48.7480427,0.785216362 47.8562025,1.40733921 L47.6224699,1.57043272 L47.904516,1.5980534 C48.7937447,1.68486124 49.628131,2.07944233 50.3149655,2.7357622 L50.3645847,2.80810206 L50.4337905,2.95935815 L50.5395578,2.83046166 C51.0292212,2.2267526 51.7643691,1.815073 52.5556651,1.70064448 L52.7241093,1.67696962 L52.6261766,1.5362357 C52.1143152,0.810206497 51.4091999,0.443246087 50.5304174,0.443246087 Z M49.611156,5.70038143 C49.7482618,5.70038143 49.882756,5.71616467 50.0094156,5.74641589 L50.1021252,5.76877548 L50.1321579,5.67802183 L50.193529,5.58726818 C50.6675232,5.18611075 51.2694827,4.96383007 51.8871114,4.96383007 C52.2461979,4.96383007 52.5870036,5.03880047 52.8990824,5.18611075 L53.1915746,5.32421413 L53.0335766,5.04011574 C52.4812363,4.04051032 51.4849345,3.44469288 50.3685021,3.44469288 C49.334333,3.44469288 48.373287,3.96159411 47.7987487,4.82835723 L47.7595756,4.88622912 L47.7974429,4.94410101 L47.802666,5.23346048 L47.6942872,5.40707615 L47.8979871,5.39260818 L48.079489,5.38471656 C48.4986409,5.38471656 48.8942889,5.49388399 49.2572926,5.70827305 L49.2899369,5.7280021 L49.3251926,5.72274102 L49.611156,5.70038143 Z M55.1332531,5.70958832 L55.246855,5.80297251 L55.2964742,5.66486913 C55.7404357,4.44035249 55.2847223,3.05537288 54.2361898,2.44508747 C53.8614341,2.2267526 53.4488111,2.11495462 53.0100727,2.11495462 C52.3088748,2.11495462 51.601148,2.40957517 51.0723115,2.92253058 L50.9339,3.05800342 L51.1219308,3.10009207 C52.1273729,3.3289491 52.9604535,3.96817046 53.4644803,4.89938182 L53.4971245,4.95988426 C54.0285725,5.00986453 54.7127955,5.3649875 55.1332531,5.70958832 Z M46.9121315,2.06365908 C45.9719779,2.22938314 45.1166992,2.78048139 44.5656647,3.57621991 C44.0276879,4.35222938 43.8252937,5.30053926 43.9950436,6.25016441 L44.0407455,6.50138103 L44.1830744,6.28962252 C44.8816608,5.26108115 45.8231202,4.67052479 46.7658854,4.67052479 C46.926495,4.67052479 47.0897161,4.68762331 47.2503257,4.72050506 L47.3208372,4.73497304 L47.3587045,4.67315533 C47.8797064,3.83269762 48.6997293,3.2671314 49.6673041,3.08036301 L49.8109387,3.05142707 L49.7378156,2.92516112 C49.5915695,2.59502828 48.5874332,2.009733 47.5036449,2.009733 C47.3626218,2.009733 47.2215988,2.01893989 47.0805757,2.03603841 L47.0662123,2.03866895 L47.0518488,2.0452453 L46.9669738,2.06497435 L46.9447758,2.06365908 L46.9291065,2.06102854 L46.9121315,2.06365908 Z M48.4163774,8.42562147 L48.4503274,8.35459687 C48.78591,7.65881889 49.3591426,7.24450875 49.984606,7.24450875 C50.1517444,7.24450875 50.3241059,7.27212942 50.499079,7.32868604 L50.7288943,7.42207024 L50.83205,7.47073524 L50.8712231,7.36288307 L50.8908096,7.33263186 L50.9312885,7.27870577 L50.9221481,7.23398658 C50.7119193,6.1620413 49.4453234,5.88978035 48.6918947,6.48559779 C48.1408602,6.91963699 47.9463006,7.59305537 48.1565294,8.32960673 L48.1748102,8.39800079 L48.2453217,8.40457714 L48.2897178,8.40720768 L48.3354197,8.41115349 L48.4163774,8.42562147 Z M51.5071326,7.17085361 C52.2749248,7.17085361 53.0179073,7.61936078 53.3561015,8.28751808 L53.4514226,8.47560174 L53.5415207,8.28620281 C53.9201937,7.50098645 53.8078976,6.60660266 53.2568631,6.00552414 C52.91214,5.62672629 52.4211709,5.42022886 51.8753595,5.42022886 C51.4131172,5.42022886 50.9613212,5.57148494 50.6035405,5.84506116 L50.4886328,5.93318427 L50.6087635,6.01473103 C50.9822135,6.272524 51.2459788,6.65395239 51.3517461,7.09062212 L51.3713326,7.17348415 L51.4549019,7.17085361 L51.5071326,7.17085361 Z M46.7671912,5.13613047 C45.858376,5.13613047 44.982205,5.7635144 44.3632705,6.85913455 C43.9454244,7.59568591 43.7221379,8.77679863 44.1295378,9.51598053 C44.3554359,9.92371432 44.7536954,10.1499408 45.2812261,10.1696699 L45.4235549,10.1749309 L45.3856876,10.0381428 C45.1219223,9.0793108 45.2577222,7.81928186 45.5423799,7.15507037 C45.8113683,6.52374063 46.2866682,6.00420886 46.8807931,5.68985927 L46.9251892,5.6661844 L46.9343296,5.6175194 L46.9369412,5.5820071 L47.0139815,5.38471656 L47.0531546,5.28870183 L47.1053854,5.15980534 L46.9669738,5.14665264 L46.7671912,5.13613047 Z M43.4635956,4.35222938 C41.5010249,5.65434697 40.5465077,8.59792187 42.127794,10.3432855 L42.2923209,10.5247928 L42.3092959,10.2801526 C42.3745843,9.30159148 43.094063,7.63119821 43.7495591,7.06694726 L43.7286668,7.01302118 L43.7260552,7.00776009 C43.421811,6.15283441 43.3852495,5.27423386 43.6202879,4.46928844 L43.6999398,4.19571222 L43.4635956,4.35222938 Z M51.5149672,7.63119821 L51.3961422,7.63514402 L51.363498,7.63908983 L51.3386884,7.65881889 L51.3177961,7.66934105 L51.210723,7.73905037 L51.3008211,7.8311193 C51.7460883,8.28488754 51.9367306,8.90174931 51.8087652,9.48046824 C51.7382537,9.80402473 51.5920076,10.1012758 51.3739442,10.3643299 L51.23945,10.5261081 L51.448373,10.535315 L51.516273,10.5366303 C52.2683959,10.5366303 53.0805842,9.95659608 53.0923362,9.09509404 C53.0962535,8.73997106 52.9539246,8.39537025 52.6914651,8.12705511 C52.3872209,7.81665132 51.9471768,7.63119821 51.5149672,7.63119821 Z M53.6877668,5.54123372 L53.6446764,5.59384454 L53.5571899,5.66092332 L53.6290072,5.74510062 C54.161761,6.35801657 54.3471802,7.24845456 54.1134475,8.07049849 L54.0951667,8.12968565 L54.1408687,8.17440484 C54.8041993,8.82940944 55.1201954,9.68170459 55.0274858,10.5747731 L55.0131223,10.7233987 L55.1567569,10.6865711 L55.2285742,10.6773642 L55.246855,10.6786795 L55.3016973,10.6826253 L55.3356473,10.6379061 C56.0028952,9.76325135 56.213124,8.67946863 55.9127972,7.66407997 C55.6150818,6.65263712 54.8485954,5.86215967 53.8118149,5.49519926 L53.7308572,5.46626332 L53.6877668,5.54123372 Z M55.9101856,4.64684993 C55.9167145,5.14928318 55.8135587,5.64777062 55.6111645,6.08970143 L55.5837434,6.1488886 L55.625528,6.20018414 C56.1870087,6.87360253 56.4938644,7.72852821 56.4912528,8.60975931 L56.4912528,8.69130606 L56.5709047,8.71103512 L56.6505567,8.75049323 C57.2577392,9.22267526 57.671668,9.84611338 57.8479468,10.5510983 L57.914541,10.8167828 L58.0412006,10.5747731 C58.6209621,9.45679337 58.7293409,8.21517822 58.3467506,7.07746942 C57.9719949,5.96475076 57.1598066,5.06773642 56.0577375,4.5508352 L55.9088799,4.4798106 L55.9101856,4.64684993 Z M49.984606,7.70222281 C49.3983157,7.70222281 48.8969004,8.184927 48.7062581,8.93200053 C48.5365082,9.60015783 48.6553331,10.437985 49.3095234,10.8009996 L49.3421676,10.8180981 L49.3787292,10.8115218 L49.4100676,10.8036301 L49.4218195,10.8009996 C50.2065867,10.7996843 51.120625,10.3314481 51.3491346,9.43837959 C51.5241076,8.75312377 51.1023442,8.02183349 50.3880886,7.7732474 C50.2522886,7.72589767 50.1164886,7.70222281 49.984606,7.70222281 Z M48.0912409,5.82007102 C47.1628392,5.82007102 46.2357432,6.53426279 45.8844914,7.5167697 C45.5815529,8.37038011 45.5267106,10.1736157 46.3062547,10.6997238 L46.5517393,10.8654478 L46.462947,10.5826647 C46.3284528,10.1486255 46.3702374,9.69222675 46.5830778,9.29501513 C46.8011412,8.88991188 47.1772026,8.58476917 47.615941,8.45850322 L47.7099564,8.43219782 L47.6890641,8.33618309 C47.4866699,7.41417861 47.8000545,6.5382086 48.5064755,6.05024333 L48.7036466,5.91345522 L48.4699139,5.86215967 C48.3471717,5.834539 48.2192063,5.82007102 48.0912409,5.82007102 Z M47.7739391,8.85571485 C47.4762237,8.91621728 47.220293,9.09903985 47.0570719,9.3713008 C46.7541335,9.87241878 46.8181162,10.5616204 47.203318,10.987768 C47.6825352,11.5257135 48.3889563,11.6177825 49.0379235,11.3652506 L49.2468465,11.2850191 L49.0509811,11.1771669 C48.4594678,10.8522951 48.1421659,10.2104432 48.1800332,9.41865053 L48.181339,9.37787715 L48.1526121,9.34236486 L48.1421659,9.33184269 C48.0481506,9.20820729 47.9619698,9.06484283 47.887541,8.91358674 L47.8522852,8.83993161 L47.7739391,8.85571485 Z M50.7863481,10.8693937 C50.5970116,10.9851374 50.3867828,11.0785216 50.159579,11.1469157 L50.1217117,11.1587531 L50.0995136,11.1929502 L50.0603406,11.2521373 C49.7234522,11.5612258 49.3082176,11.7769302 48.8603389,11.8768907 L48.7650177,11.8992503 L48.7793812,11.995265 C48.8211658,12.2714718 49.0313946,12.5989741 49.797881,12.5989741 C50.3645847,12.5989741 50.9730731,12.4200973 51.2068057,12.2990925 C51.7787326,12.0018414 52.2331402,11.5309746 52.5243267,10.9351572 L52.6535978,10.6694726 L52.3872209,10.7944233 C52.1064806,10.9259503 51.8022364,10.9956596 51.5071326,10.9956596 C51.3308538,10.9956596 51.1571865,10.9706695 50.9926596,10.9220045 L50.9064789,10.8772853 L50.849025,10.8299356 L50.7863481,10.8693937 Z M53.8314014,8.70708931 L53.8144264,8.73734052 L53.7935341,8.77153755 L53.6329245,8.87412863 L53.5362976,8.8846508 L53.5441322,9.02012364 L53.5467438,9.0924635 C53.5415207,9.68433513 53.2529457,10.1052216 53.0113785,10.3524924 L52.9212804,10.4458766 L53.030965,10.5142707 L53.1001708,10.7339208 C52.8142074,11.508615 52.2879825,12.1649349 51.6168172,12.5818756 L51.3856961,12.72524 L51.6533787,12.773905 C51.8113768,12.802841 51.9706806,12.817309 52.1260671,12.817309 C53.0858073,12.817309 53.941086,12.2609496 54.3563205,11.3678811 C54.7728608,10.4656057 54.6396724,9.46731553 53.9998456,8.69525187 L53.907136,8.58476917 L53.8314014,8.70708931 Z M43.2546726,8.67683809 C42.7741496,9.91319216 42.5691439,11.5967381 43.4361745,12.6173879 L43.450538,12.6331711 L43.4688187,12.642378 L43.5641399,12.7410233 L43.5719745,12.7607523 L43.5876437,12.7765356 C43.9010283,13.0751019 44.3005936,13.2789688 44.7771992,13.3802446 L44.9469492,13.4170722 L44.89733,13.2500329 C44.637482,12.3490727 44.880355,11.3941865 45.1284511,10.7523346 L45.1754588,10.6300145 L45.0461877,10.6116007 C43.9937379,10.4590293 43.5341072,9.5265027 43.4544553,8.70577404 L43.2546726,8.67683809 Z M47.0923277,11.7269499 C47.2098469,12.9093779 48.2387928,13.8353282 49.4335715,13.8353282 C50.0446713,13.8353282 50.6022347,13.5893726 51.0461962,13.1250822 L51.0918981,13.0777325 L51.0631712,13.0027621 L51.0553365,12.983033 L51.0292212,12.8725503 L50.9234539,12.9080626 C50.7315058,12.9711956 50.5578386,13.0145995 50.3933117,13.0409049 C50.2823213,13.0566881 50.1661079,13.065895 50.0485887,13.065895 C49.3304157,13.065895 48.492112,12.7383927 48.3497832,12.0189399 L48.334114,11.9373931 L48.2518505,11.9347626 C47.887541,11.9216099 47.5402064,11.815073 47.2516315,11.6283046 L47.0701296,11.5125608 L47.0923277,11.7269499 Z M56.4207413,9.35288702 C56.2914702,9.98553203 56.0094241,10.564251 55.5824376,11.07063 L55.5484876,11.1114034 L55.5615453,11.1640142 C55.7874434,12.0426148 55.6385857,12.997501 55.1502281,13.7840326 L55.0287916,13.9800079 L55.2559954,13.9418651 C56.2966933,13.7682494 57.1206335,13.0395896 57.4065969,12.0399842 C57.6899488,11.0469551 57.37787,9.99473892 56.591797,9.29501513 L56.4573028,9.17532553 L56.4207413,9.35288702 Z M45.5711068,10.8338814 C44.9795934,12.1912403 45.0775261,13.255294 45.8609875,13.9957911 C46.4903682,14.5929238 47.3717622,14.7047218 47.8392275,14.7178745 C47.8483679,14.7178745 48.7271504,14.6534263 49.3304157,14.5218993 L49.3082176,14.3140865 L49.2925484,14.3140865 C48.9190985,14.3140865 48.5574005,14.2364856 48.2179005,14.0839142 C47.2307392,13.6367223 46.6104989,12.5884519 46.6379201,11.4126003 L46.6405316,11.3218466 L46.5504335,11.3073787 C46.2305201,11.2560831 45.9615317,11.0903591 45.7473856,10.812837 L45.6403125,10.6734184 L45.5711068,10.8338814 Z M51.5175788,13.2671314 C51.23945,13.5867421 50.8895039,13.8524267 50.5095251,14.033934 L50.3201886,14.1246876 L50.5056078,14.2220176 C51.2485904,14.6087071 51.9419537,14.8059976 52.567417,14.8059976 C53.2085496,14.8059976 53.7687245,14.5942391 54.2296609,14.1786137 C54.9726435,13.5104564 55.3212838,12.5200579 55.1632858,11.5270288 L55.1528396,11.4612653 L55.0901627,11.4428515 L54.9843954,11.3876102 L54.8747108,11.2876496 L54.8185628,11.425753 C54.3524032,12.5503091 53.2986477,13.2776536 52.1312902,13.2776536 C51.9615402,13.2776536 51.7865672,13.2631856 51.6128999,13.2329344 L51.5567518,13.2237275 L51.5175788,13.2671314 Z M41.0348653,9.77245824 C40.4642443,11.1416546 40.4250712,12.525319 40.923875,13.567013 C41.324746,14.4035249 42.0664228,14.9967118 43.0679476,15.2808102 L43.2664245,15.3373668 L43.1933015,15.1427068 C42.9203957,14.423254 42.8890573,13.6406682 43.1018976,12.8791267 L43.1162611,12.8265158 L43.0810053,12.7831119 C42.8355208,12.4871761 42.6461843,12.1583585 42.5169131,11.8084966 C42.4450958,11.6138366 42.3902535,11.4047087 42.3523862,11.1876891 L42.3458574,11.148231 L42.3132132,11.1232408 C41.8326902,10.7470735 41.4657691,10.29199 41.2242018,9.76851243 L41.1262692,9.55412337 L41.0348653,9.77245824 Z M57.9445737,11.2350388 C57.9733006,12.4319348 57.3386969,13.5170328 56.2901644,14.068131 L56.2314048,14.0983822 L56.2340163,14.1641457 L56.2366279,14.1983428 L56.2379337,14.2101802 C56.1635048,14.7389188 55.9506645,15.2255689 55.5837434,15.6951203 L55.455778,15.8595291 L55.6633953,15.8647902 L55.7561049,15.8661055 C57.3073585,15.8661055 58.6457717,14.9559384 59.2320619,13.5117717 C59.6943042,12.3727476 59.5950657,11.0982507 58.9578505,10.014468 L58.8429428,9.8184927 L58.7711255,10.034197 C58.654912,10.3801131 58.5008313,10.7168223 58.3141063,11.0338024 L58.1404391,11.1403393 L58.0751506,11.1324477 L57.9419622,11.0956201 L57.9445737,11.2350388 Z M43.4596783,13.3697225 C43.3160438,14.2864659 43.5706687,15.2097856 44.1582647,15.9029331 C44.744555,16.5947652 45.5998337,16.9906616 46.5060374,16.9906616 C46.7201835,16.9906616 46.9382469,16.968302 47.1550046,16.9248981 L47.373068,16.8801789 L47.1994007,16.7407602 C46.6640354,16.3080363 46.2696932,15.7332632 46.0281259,15.0322241 L46.0620759,14.846771 L46.1495625,14.7507563 L46.0385721,14.6849928 C45.6990722,14.4837564 45.4248607,14.2325398 45.2224665,13.9405498 L45.1950453,13.9010917 L45.1310626,13.8958306 L45.1258396,13.8971459 C44.5734993,13.8300671 44.0681667,13.630146 43.6242052,13.3026437 L43.4870995,13.2013679 L43.4596783,13.3697225 Z M46.5425989,15.0940418 C47.0348738,16.3093516 48.130414,17.0643167 49.3996215,17.0643167 C50.5591443,17.0643167 51.5750326,16.4303564 52.115621,15.3689333 L52.1822152,15.2387216 L52.0372748,15.2176772 C51.4888518,15.1400763 50.9103962,14.9454163 50.3188828,14.6402736 L50.2535944,14.6060765 L50.2000579,14.6573721 C49.8879791,14.9546232 49.1959215,15.119032 48.2531563,15.119032 C47.6916756,15.119032 47.0818815,15.0545837 46.6640354,14.9519926 L46.4668643,14.9046429 L46.5425989,15.0940418 Z M54.3249821,16.2948836 L54.4150801,16.2225437 C55.1136666,15.6582928 55.5262896,15.1006182 55.7143203,14.4679732 L55.766551,14.2917269 L55.5876607,14.3377614 C55.4100761,14.3837959 55.2259627,14.4166776 55.0405435,14.4350914 L55.0157339,14.4364067 L54.8760166,14.360121 L54.8055051,14.2496383 L54.7141012,14.3430225 C54.6018051,14.4600815 54.4816744,14.5653032 54.3602378,14.6600026 C53.8875495,15.021702 53.3391265,15.2203078 52.7319439,15.250559 L52.669267,15.2545048 L52.6431516,15.313692 C52.3715517,15.9331843 51.9641518,16.4448244 51.4327038,16.8328291 L51.3347711,16.9038537 C51.4770999,17.134026 51.5776441,17.2326713 51.8322691,17.3444693 C52.5922266,17.6798632 53.6799322,16.8196764 54.3249821,16.2948836 Z M46.3454278,17.5877943 C46.6797047,18.6623701 47.5297603,19.2779166 48.6736139,19.2779166 C49.7574022,19.2779166 50.9051731,18.7241878 51.5985364,17.8692621 L51.6794941,17.7679863 L51.5645864,17.7101144 C51.3648038,17.6062081 51.1950538,17.4536367 51.0475019,17.2431935 L51.0292212,17.2089964 L50.984825,17.1156123 L50.8908096,17.1590162 C50.4220386,17.3852427 49.8971194,17.5049323 49.3735061,17.5049323 C48.831612,17.5049323 48.2923294,17.377351 47.8118064,17.1353413 L47.7112622,17.085361 L47.6694776,17.1905827 L47.5297603,17.3129028 C47.2007065,17.406287 46.8599008,17.4536367 46.5177893,17.4536367 L46.445972,17.4523215 L46.3023374,17.4496909 L46.3454278,17.5877943 Z M55.0235685,16.2961989 C54.6122513,16.6710509 54.1408687,16.9972379 53.7765591,17.2405629 C53.2020208,17.620676 52.6836305,17.8245429 52.2344459,17.8469025 L52.1822152,17.8495331 L52.1534883,17.8942523 C51.9615402,18.1901881 51.7160556,18.4650796 51.4261749,18.7084046 L51.3412999,18.7794292 L51.4157288,18.8609759 C51.8335749,19.3094831 52.3441305,19.5383401 52.9330323,19.5383401 C54.4255263,19.5383401 56.1530587,17.975799 56.4207413,16.3830067 L56.4442452,16.2422728 L56.3032221,16.2620018 C56.0956048,16.2909378 55.8840703,16.3054058 55.6751472,16.3054058 C55.4871165,16.3054058 55.2951684,16.2935683 55.1058319,16.2698935 L55.0588243,16.2633171 L55.0235685,16.2961989 Z M52.8873304,20 C52.1508767,20 51.5241076,19.7001184 51.0266096,19.109562 L50.9691558,19.0424832 L50.894727,19.0872024 C50.2300905,19.4857293 49.4544638,19.7053795 48.7088697,19.7053795 C47.2215988,19.7053795 46.1482567,18.8636065 45.8387894,17.4536367 L45.824426,17.3878732 L45.7591375,17.3734052 C44.8646858,17.17743 44.0851417,16.6434302 43.5680572,15.8739971 L43.5328014,15.8213863 L43.4701245,15.8292779 L43.416588,15.8332237 L43.3943899,15.8319085 C41.9515152,15.5728002 40.7789346,14.6284361 40.2579328,13.3079048 C39.7604348,12.0478758 39.9811098,10.612916 40.9330154,8.92016309 L40.9512961,8.88859661 L40.946073,8.85176904 C40.6039616,6.79337104 41.9737132,4.42062344 43.9976552,3.56175194 L44.0289936,3.54859924 L44.0459686,3.51966329 C44.6479281,2.54899382 45.6847087,1.84532421 46.8207277,1.63882678 L46.8507604,1.6335657 L46.8716527,1.61383664 C47.9593583,0.618177035 49.3735061,0 50.5604501,0 C51.691246,0 52.6000613,0.543206629 53.1889631,1.57043272 L53.1915746,1.57963962 L53.200715,1.6112061 L53.2229131,1.67433908 L53.2882015,1.67960016 C53.7870053,1.72694989 54.2609994,1.89793503 54.6592589,2.17414179 C55.2351031,2.57661449 55.6477261,3.1961068 55.8213933,3.91819019 L55.8370626,3.9839537 L55.9036568,3.99579114 L55.9336895,4.00105222 L55.9493587,4.00236749 C58.1495794,4.91121926 59.3548042,7.0472182 58.9487101,9.32000526 L58.9291235,9.42917269 L59.0388081,9.4423254 L59.1994177,9.54360121 C60.0142176,10.7365514 60.215306,12.1096935 59.7648157,13.4104959 C59.3169369,14.7034066 58.2736275,15.7135341 56.9743874,16.1146916 L56.9064874,16.1357359 L56.9012643,16.2067605 C56.7602412,18.0862817 54.7362993,20 52.8886362,20 L52.8873304,20 Z"/>
  </g>
</svg>
